<?xml version="1.0" standalone="no"?>
<!DOCTYPE svg PUBLIC "-//W3C//DTD SVG 20010904//EN"
 "http://www.w3.org/TR/2001/REC-SVG-20010904/DTD/svg10.dtd">
<svg version="1.0" xmlns="http://www.w3.org/2000/svg"
 width="128.000000pt" height="128.000000pt" viewBox="0 0 128.000000 128.000000"
 preserveAspectRatio="xMidYMid meet">

<g transform="translate(0.000000,128.000000) scale(0.100000,-0.100000)"
fill="#000000" stroke="none">
<path d="M737 1179 c-53 -83 -126 -210 -118 -205 5 3 33 46 62 95 29 50 56 88
61 85 4 -3 8 -43 8 -89 l0 -83 -36 -12 c-19 -7 -52 -13 -72 -14 -33 -3 -68
-13 -112 -36 -10 -5 -18 -31 -23 -74 -4 -37 -12 -76 -17 -86 -5 -10 -7 -31 -4
-47 4 -21 0 -33 -15 -47 -26 -24 -38 -14 -23 18 9 21 8 23 -10 18 -19 -5 -20
-1 -16 97 2 60 -1 101 -7 101 -23 0 -301 -63 -308 -70 -10 -9 268 -724 291
-752 13 -16 20 -9 82 70 37 48 83 101 102 118 19 16 33 35 30 42 -7 21 50 84
70 79 15 -4 17 -3 8 8 -8 10 -8 18 1 33 10 16 17 17 39 9 23 -9 36 -4 98 33
40 23 72 44 72 46 0 6 -33 -11 -82 -43 -21 -12 -42 -23 -48 -23 -16 0 -11 63
8 91 52 80 119 159 135 159 29 0 159 -69 151 -81 -4 -7 2 -7 15 1 20 10 21 13
8 33 -8 12 -29 46 -46 75 -18 28 -35 52 -38 52 -4 0 16 -36 55 -98 8 -12 12
-25 9 -28 -8 -8 -147 57 -147 68 0 18 53 79 65 74 8 -3 11 2 9 12 -2 10 35 68
92 141 52 67 93 125 91 127 -2 2 -17 0 -33 -5 -16 -5 -82 -22 -148 -37 l-119
-28 -16 21 c-9 11 -22 29 -29 39 -7 11 -4 2 7 -18 23 -42 19 -47 -41 -58 l-38
-7 0 84 c0 72 2 84 15 79 12 -4 13 -2 6 12 -26 45 -28 46 -44 21z m-279 -581
c7 -7 12 -23 12 -36 0 -19 -4 -23 -19 -19 -19 5 -19 3 -4 -27 13 -27 13 -48 5
-124 -5 -51 -15 -99 -22 -107 -26 -31 -32 -3 -25 114 4 65 7 135 7 157 0 21 2
42 5 47 7 11 27 9 41 -5z"/>
<path d="M800 1110 c6 -11 13 -20 16 -20 2 0 0 9 -6 20 -6 11 -13 20 -16 20
-2 0 0 -9 6 -20z"/>
<path d="M924 534 c-18 -14 -18 -15 4 -4 12 6 22 13 22 15 0 8 -5 6 -26 -11z"/>
<path d="M955 479 c-66 -39 -124 -76 -130 -81 -13 -14 26 7 105 55 36 22 68
41 72 43 4 3 9 0 12 -5 5 -8 -15 -40 -121 -188 -24 -35 -42 -63 -39 -63 3 0
44 55 92 123 48 67 99 137 112 155 13 17 23 32 21 32 -2 0 -58 -32 -124 -71z"/>
<path d="M755 371 c-20 -4 -26 -9 -17 -14 13 -9 18 -208 5 -220 -3 -4 -28 23
-55 61 -72 99 -80 100 -13 2 83 -122 73 -119 128 -39 27 38 46 69 43 69 -3 0
-19 -20 -36 -45 -17 -25 -35 -45 -40 -45 -6 0 -10 44 -10 102 0 80 3 105 17
120 9 10 14 17 12 17 -2 -1 -17 -4 -34 -8z"/>
</g>
</svg>
