<?xml version="1.0" standalone="no"?>
<!DOCTYPE svg PUBLIC "-//W3C//DTD SVG 20010904//EN"
 "http://www.w3.org/TR/2001/REC-SVG-20010904/DTD/svg10.dtd">
<svg version="1.0" xmlns="http://www.w3.org/2000/svg"
 width="256.000000pt" height="256.000000pt" viewBox="0 0 256.000000 256.000000"
 preserveAspectRatio="xMidYMid meet">

<g transform="translate(0.000000,256.000000) scale(0.100000,-0.100000)"
fill="#000000" stroke="none">
<path d="M1459 2338 c-23 -40 -96 -159 -161 -265 l-119 -191 -69 -17 c-39 -10
-73 -21 -76 -26 -2 -5 -11 -60 -19 -123 -18 -141 -22 -160 -51 -216 -39 -75
-72 -105 -111 -101 -15 1 -16 113 -3 291 4 63 7 116 5 118 -2 2 -106 -19 -232
-46 -125 -27 -266 -57 -313 -67 -129 -26 -128 -23 -81 -141 21 -55 56 -142 76
-194 20 -52 89 -225 152 -385 63 -159 142 -360 175 -445 120 -310 153 -387
164 -383 6 2 14 -6 17 -19 6 -21 8 -19 33 17 85 127 344 435 364 435 5 0 64
-79 132 -176 67 -97 132 -188 144 -202 l21 -25 123 174 c68 96 198 278 289
404 271 379 259 360 224 342 -41 -22 -427 -252 -488 -292 -27 -18 -73 -42
-101 -54 -48 -21 -54 -21 -88 -7 -54 23 -96 55 -96 74 0 9 10 30 23 45 l22 28
47 -21 47 -20 143 84 c79 46 230 136 336 200 106 64 198 116 203 116 18 0 7
22 -87 172 -53 84 -104 165 -112 179 -15 25 -15 29 12 70 16 24 50 69 76 99
25 30 61 76 79 103 17 26 73 99 122 163 50 63 88 118 85 121 -3 4 -32 -1 -63
-10 -32 -9 -125 -32 -208 -51 -82 -19 -192 -45 -243 -57 l-92 -23 -23 24 c-13
14 -70 103 -126 198 -57 94 -104 172 -106 172 -1 0 -22 -33 -46 -72z m25 -40
c3 -7 7 -83 10 -169 l6 -156 -33 -17 c-17 -9 -74 -25 -125 -35 -117 -22 -128
-14 -79 56 18 26 71 112 118 190 46 79 88 143 92 143 4 0 9 -6 11 -12z m84
-25 c10 -16 47 -77 81 -137 75 -129 75 -131 -49 -153 -45 -8 -83 -13 -84 -11
-1 2 0 76 2 166 4 174 10 191 50 135z m426 -710 c25 -40 139 -232 144 -245 9
-21 -50 -2 -173 55 -120 55 -153 78 -127 89 5 2 32 33 61 71 29 37 57 67 62
67 5 0 20 -17 33 -37z m-1019 -157 c-9 -48 -27 -76 -56 -91 -51 -27 -52 1 -3
83 30 50 40 60 51 50 9 -7 12 -22 8 -42z m996 -64 c158 -73 171 -81 164 -93
-4 -5 -84 -55 -178 -110 -95 -56 -224 -133 -288 -170 -64 -38 -121 -69 -127
-69 -24 0 -29 91 -9 147 7 17 41 67 77 110 36 43 92 115 125 160 48 66 65 82
86 83 15 0 82 -26 150 -58z m-1060 -145 c27 -20 29 -26 24 -66 -3 -25 -7 -46
-10 -49 -8 -8 -52 7 -78 29 -31 23 -34 47 -11 90 17 34 27 33 75 -4z m-51
-117 c27 -27 65 -110 62 -135 -1 -11 -11 -96 -22 -188 -17 -155 -21 -171 -45
-194 -18 -19 -29 -23 -37 -15 -13 13 0 552 13 552 5 0 18 -9 29 -20z m1174
-96 c4 -11 -46 -90 -151 -238 -86 -121 -188 -266 -227 -321 -94 -134 -111
-154 -124 -146 -7 4 -11 77 -13 210 l-2 203 29 23 c16 13 61 41 99 63 103 57
284 164 330 194 48 32 51 33 59 12z m-649 -214 c4 -6 24 -18 46 -27 22 -8 44
-24 50 -35 11 -20 14 -427 3 -437 -2 -3 -13 4 -24 15 -35 36 -230 309 -236
330 -4 16 8 41 48 93 43 57 58 71 80 71 15 0 30 -5 33 -10z"/>
</g>
</svg>
