<svg id="Layer_1" data-name="Layer 1" xmlns="http://www.w3.org/2000/svg" viewBox="0 0 500 500"><defs><style>.cls-1{fill:#fff;}.cls-2{fill:#662d90;}.cls-3{fill:#fe4724;}.cls-4{fill:#fbfafc;}.cls-5{fill:#9d1f63;}</style></defs><circle class="cls-1" cx="250" cy="250" r="250"/><path class="cls-2" d="M437.69,373.79c-.54,1.64-2,2.16-3.4,2.71-.43.16-1,0-1.32.39H66.72c-1.13-.29-2.36-.18-3.35-.94-.73-.57-1.53-1.09-1.46-2.19a93.3,93.3,0,0,1,8.32-5q24.51-14.31,49.08-28.53,19.45-11.33,38.91-22.63c4.61-2.68,9.2-5.4,13.85-8a4.51,4.51,0,0,1,1.75-.68,21.65,21.65,0,0,1,2.67-.08H323.32a23.31,23.31,0,0,1,2.51.06c1.67.21,3,1.27,4.35,2.08q26.28,15.35,52.63,30.59,26.78,15.59,53.59,31.11A2.71,2.71,0,0,1,437.69,373.79Z"/><path class="cls-3" d="M173.21,309.36l-40.28,23.42q-34.44,20-68.9,40c-.63.37-1.29.7-1.93,1.05-.84.06-.37-.78-.72-1.05V370c5.53-10.77,11.88-21.08,17.93-31.56Q161.53,195.83,243.8,53.28c1.23-2.12,2.54-4.12,5.13-4.73a4.73,4.73,0,0,1,.92,0,3.13,3.13,0,0,1,.5,2.39c0,5.65,0,11.31,0,17v105c0,1,0,2-.06,3-.44,1.87-1.61,3.39-2.54,5q-13.12,22.69-26.21,45.4-14.07,24.4-28.13,48.82c-6.3,11-12.68,21.91-19,32.9A3.31,3.31,0,0,1,173.21,309.36Z"/><path class="cls-4" d="M61.38,372.81l.72,1.05c.56,1.56,1.94,2.07,3.3,2.62.43.17,1,0,1.32.41-1.58,0-3.15,0-4.72,0-.54,0-.67-.1-.64-.65C61.41,375.11,61.38,374,61.38,372.81Z"/><path class="cls-5" d="M249.88,176.56q0-43.62,0-87.26,0-20.4,0-40.8c2.59,0,4.13,1.58,5.34,3.54,1.65,2.67,3.17,5.41,4.74,8.13L436.58,366.34c1,1.74,1.91,3.49,1.74,5.59a2.62,2.62,0,0,1-.63,1.86c-4.75-2.72-9.51-5.43-14.25-8.17q-12.33-7.12-24.64-14.3c-7.31-4.24-14.61-8.51-21.92-12.75l-24.51-14.22L330.45,311.6c-1.31-.76-2.63-1.49-3.95-2.24a2.57,2.57,0,0,1-1-1Q317.29,294,309,279.68c-6.36-11.06-12.77-22.09-19.14-33.15q-11.69-20.34-23.43-40.64c-5.2-9-10.38-18-15.62-27A5.23,5.23,0,0,1,249.88,176.56Z"/></svg>