<svg id="Layer_1" data-name="Layer 1" xmlns="http://www.w3.org/2000/svg" viewBox="0 0 500 500"><defs><style>.cls-1{fill:#efb80b;}.cls-2{fill:#efb706;}.cls-3{fill:#efb600;}.cls-4{fill:#fefefe;}.cls-5{fill:#efb700;}</style></defs><path class="cls-1" d="M257.8,491.22H242.87c-8.42-4-17.13-2-25.78-1.24-5.7-.24-11.5,0-16.82-2.56-.88-.52,1-4.81-2.47-1.82a8.17,8.17,0,0,1-5.42,2.23c-35.3-5.61-65.54-22.45-93-44-38.81-30.4-66.25-69.28-81.64-116.41-4.56-14-4.47-28.52-5.94-42.88.85-7.92,2.57-15.89-1.28-23.56V233.28c4.14-6,1.72-12.46,1.11-18.79,1.61-43.35,19.61-80.27,45.77-113.56,32.25-41.06,73.35-70,123.81-84.07,28.21-7.85,57.62-7,86.68-5.9,22.27.84,44.53,1.81,65.88,10.15,26.71,10.43,51.49,23.71,72.57,43.37,2,3.16,4.33,5.94,7.92,7.43A74.25,74.25,0,0,1,430,87.66a18.31,18.31,0,0,0,6.39,7c17.52,19.73,32.35,41.09,40.1,66.71,1.24,3.43-3.15,8.33,2.85,10.54,6.16,6.26,7.45,14.67,8.36,22.52,4.2,36.31,5.6,72.83.48,109.11-5,35.54-20.92,66.69-42.91,94.77-2.37,3-4.43,6.45-7.59,8.83-3.17,2.1-6.18,4.38-7.76,8.06a78.09,78.09,0,0,1-15.91,15.95,17.86,17.86,0,0,0-7,6.73c-32.11,27.94-67.83,48-111.39,50.9C282.94,488.43,270.23,487.65,257.8,491.22Z"/><path class="cls-2" d="M296.08,486.43c-6.24,2.09-13.26,1.1-19.1,4.79H257.8c.83-1.06,1.65-3.05,2.5-3.06C272.25,488,284,482.9,296.08,486.43Z"/><path class="cls-3" d="M221.55,491.22c-.41-2.44-2.69-1.87-4.18-2.57,8.74-1.43,17.73-5.45,25.5,2.57Z"/><path class="cls-3" d="M13.07,284.36c-.71-1.49-.19-3.74-2.58-4.18V261C18.16,268,14.47,276.32,13.07,284.36Z"/><path class="cls-3" d="M10.49,220.49c2.39-.45,1.87-2.7,2.58-4.18,1,5.94,5.81,12.45-2.58,17Z"/><path class="cls-4" d="M347.63,189.58c-1.38,1.59-2.45,3-3.68,4.23-9,9.09-18.23,17.92-26.9,27.3-4.17,4.5-6.61,3-10.13-.54-16.67-16.95-33.71-33.55-50.23-50.64-4.69-4.85-7.47-5.38-12.45-.2-16,16.61-32.89,32.36-48.73,49.12-6,6.39-9.45,5.6-14.77-.37-7.54-8.47-15.78-16.34-24-24.16-3.59-3.42-3.92-5.74-.2-9.42q44.61-44.21,88.9-88.76c3.24-3.26,5.45-4.56,9.39-.57,29.68,30,59.57,59.88,89.37,89.8C345.41,186.59,346.38,188,347.63,189.58Z"/><path class="cls-4" d="M250.2,410.69c-1.9-1.71-3.53-3.05-5-4.53-29.37-29.34-58.66-58.76-88.16-88-4-3.94-4-6.36,0-10.15,9-8.53,17.84-17.29,26.3-26.38,4.11-4.42,6.56-3.14,10.14.49,17,17.17,34.32,33.93,51.09,51.27,4.71,4.86,7.25,4.41,11.69-.17,16.54-17.08,33.68-33.57,50.16-50.69,4.69-4.88,7.36-4.55,11.69.17,7.92,8.61,16.27,16.86,24.82,24.85,4.24,4,4.72,6.48.25,10.9C314,347.43,285,376.68,255.91,405.8,254.22,407.5,252.26,408.94,250.2,410.69Z"/><path class="cls-4" d="M162,251.53c-1.1,1.33-2.11,2.76-3.32,4-9.25,9.3-18.63,18.46-27.74,27.89-3.1,3.2-5.26,3.67-8.59.2-9.08-9.45-18.39-18.7-27.81-27.81-3.21-3.11-3.61-5.32-.17-8.62,9.45-9.09,18.58-18.5,27.9-27.73,1.9-1.89,3.73-4.82,6.92-1.63q15.41,15.42,30.8,30.84A21,21,0,0,1,162,251.53Z"/><path class="cls-4" d="M285.88,251.57c-1.1,1.34-2.11,2.78-3.32,4-9.25,9.3-18.65,18.46-27.76,27.9-3.18,3.3-5.37,3.41-8.6,0q-13.65-14.16-27.83-27.82c-3.28-3.16-3.47-5.29-.08-8.55,9.45-9.09,18.59-18.51,27.91-27.74,1.9-1.89,3.74-4.81,6.94-1.61q15.41,15.44,30.82,30.85A19.82,19.82,0,0,1,285.88,251.57Z"/><path class="cls-4" d="M373.91,286.9c-1.52-1.32-2.91-2.4-4.15-3.63-9-9-17.84-18.25-27.16-26.95-4.33-4-3.48-6.49.3-10.09,9-8.56,17.83-17.27,26.28-26.34,4-4.3,6.5-3.55,10.14.27,8.56,9,17.47,17.62,26.26,26.36,2.58,2.57,5.29,4.69,1.26,8.57-9.95,9.59-19.59,19.49-29.4,29.23A30.82,30.82,0,0,1,373.91,286.9Z"/><path class="cls-5" d="M405.11,69l6.78,6.28C408.4,74.56,404.13,74.63,405.11,69Z"/><path class="cls-5" d="M426.45,89.79a17.27,17.27,0,0,1,6.23,6.9C427.09,97.56,427.17,93.31,426.45,89.79Z"/><path class="cls-3" d="M472.65,163c1.1,2.7,3.2,5.06,2.69,8.27C470.51,169.81,470.91,166.64,472.65,163Z"/><path class="cls-5" d="M432.69,406.13,426.45,413C427.18,409.48,427.08,405.22,432.69,406.13Z"/><path class="cls-5" d="M411.9,427.48l-6.81,6.26C404.15,428.17,408.4,428.23,411.9,427.48Z"/><path class="cls-5" d="M199.9,485l-6-.69c2.42-1.07,4.81-2.7,7.45-.51Z"/></svg>