<svg id="Layer_1" data-name="Layer 1" xmlns="http://www.w3.org/2000/svg" viewBox="0 0 500 500"><defs><style>.cls-1{fill:#f6921a;}.cls-2{fill:#fefefe;}</style></defs><path class="cls-1" d="M485.39,251.3C484.93,383.16,378.06,486.94,249,485.88c-132.07-1.07-233.33-107.09-233.59-234C15.11,115.46,126.92,11.52,258.07,15.92,388.25,20.28,485.9,127.22,485.39,251.3Z"/><path class="cls-2" d="M321.17,255.21c6.09,3.55,11.11,6.71,15.35,10.86,9.24,9.07,13.26,20.07,12.2,33a74.13,74.13,0,0,1-10.26,32.19c-9.8,16.45-25.1,23.47-43.62,24.72-12.56.85-24.95-.63-37.26-2.81-3.23-.57-4.12.43-4.8,3.28-2.82,11.82-6,23.55-8.72,35.4-.71,3.1-1.92,3.46-4.57,2.75-6.18-1.66-12.37-3.32-18.62-4.66-3-.65-3.39-1.94-2.67-4.69,3-11.46,5.61-23,8.7-34.42.92-3.38.11-4.59-3.13-5.22a79,79,0,0,1-11.6-3c-3.74-1.34-5.22-.66-6.13,3.47-2.48,11.24-5.73,22.31-8.21,33.55-.84,3.82-2.35,4.1-5.54,3.18a141.1,141.1,0,0,0-16.73-4.19c-4.42-.71-4.39-2.57-3.44-6.13,3-11.28,5.46-22.71,8.59-33.95,1-3.58-.25-4.46-3.17-5.18-14.44-3.56-28.83-7.32-43.3-10.74-3.81-.9-4.49-2.08-2.77-5.67,3.46-7.2,6.51-14.61,9.58-22,1-2.32,2-3.12,4.63-2.33,4.58,1.39,9.28,2.4,13.95,3.53,7.8,1.88,12.06-.54,14-8.2q13.9-55.38,27.69-110.77c2.09-8.38-1.3-14.59-9.55-17.22-5.78-1.85-11.7-3.29-17.62-4.63-2.36-.53-2.82-1.47-2.25-3.64,1.87-7.11,3.77-14.22,5.36-21.4.64-2.87,1.78-3,4.34-2.39,14.4,3.72,28.88,7.12,43.25,10.94,4.07,1.08,5.69.62,6.65-3.94,2.38-11.26,5.64-22.33,8.22-33.56.73-3.18,1.78-3.79,4.81-2.9,5.83,1.71,11.72,3.27,17.68,4.43,3.53.69,4.29,1.89,3.33,5.41-3,11.26-5.58,22.67-8.63,33.94-.77,2.87.1,3.67,2.56,4.19,4.7,1,9.42,1.91,14,3.22,2.69.77,3.53.2,4.17-2.54,2.65-11.37,5.77-22.63,8.34-34,.79-3.49,2.2-3.84,5.18-3,5.54,1.56,11.11,3.13,16.76,4.16,4.09.75,5,2.18,3.88,6.3-3.13,11.25-5.61,22.67-8.67,33.93-.8,2.94,0,3.85,2.54,4.8,11.42,4.26,22.57,9.08,32,17.08,16.1,13.65,20.67,30.29,14.15,50.47C347.07,241.62,337.31,251,321.17,255.21Z"/><path class="cls-1" d="M262.83,318.7c-15.36,0-30-4-44.8-7.67-1.81-.45-2.25-1.26-1.79-3.08q6.56-25.81,13-51.66c.39-1.57.69-2.66,2.77-2.18,17.29,4.05,34.82,7.43,50,17.33,12.73,8.27,16.79,19.48,11.76,32-4.35,10.85-13.76,14-24.21,15.19A58.09,58.09,0,0,1,262.83,318.7Z"/><path class="cls-1" d="M273.81,234.5c-11.95-.21-23.37-3.36-34.85-6.16-2.12-.52-2.46-1.49-2-3.4q5.83-23.22,11.57-46.46c.46-1.89,1.39-2.3,3.07-1.9,12.43,2.93,25,5.52,36.33,11.75,7.6,4.18,14.25,9.54,15.48,18.89,1.93,14.58-7.11,25.51-22,26.9C278.93,234.36,276.37,234.38,273.81,234.5Z"/></svg>