<svg id="Layer_1" data-name="Layer 1" xmlns="http://www.w3.org/2000/svg" viewBox="0 0 500 500"><defs><style>.cls-1{fill:#978430;}.cls-2{fill:#7b6b2a;}.cls-3{fill:#b99e33;}.cls-4{fill:#dfcc80;}.cls-5{fill:#e4ca7a;}.cls-6{fill:#c5a74e;}.cls-7{fill:#b98f40;}.cls-8{fill:#d2ba6b;}.cls-9{fill:#efe7d9;}.cls-10{fill:#f1e09c;}.cls-11{fill:#cba747;}.cls-12{fill:#d1a73e;}.cls-13{fill:#f3ebb4;}.cls-14{fill:#a07b34;}.cls-15{fill:#b99945;}.cls-16{fill:#b48634;}.cls-17{fill:#ab8432;}.cls-18{fill:#c59a3a;}.cls-19{fill:#eacb72;}.cls-20{fill:#debf68;}.cls-21{fill:#f2e9b0;}.cls-22{fill:#a88f32;}.cls-23{fill:#caa84c;}.cls-24{fill:#b59547;}.cls-25{fill:#d7c073;}.cls-26{fill:#f0e9db;}.cls-27{fill:#f7f2e3;}.cls-28{fill:#d1b058;}.cls-29{fill:#f4ecdc;}.cls-30{fill:#927138;}.cls-31{fill:#c0993b;}.cls-32{fill:#dcdad6;}.cls-33{fill:#dbb959;}.cls-34{fill:#8a6027;}.cls-35{fill:#252211;}.cls-36{fill:#e5c56d;}.cls-37{fill:#edd78a;}.cls-38{fill:#6e6342;}.cls-39{fill:#d6c27c;}.cls-40{fill:#f3eec7;}.cls-41{fill:#533e26;}.cls-42{fill:#decc87;}.cls-43{fill:#ebd491;}.cls-44{fill:#e2dfd9;}.cls-45{fill:#d9d8d5;}.cls-46{fill:#d8d8d5;}.cls-47{fill:#dddcd9;}.cls-48{fill:#bab7ae;}.cls-49{fill:#d1b157;}.cls-50{fill:#856534;}.cls-51{fill:#38321e;}.cls-52{fill:#766840;}.cls-53{fill:#dec577;}.cls-54{fill:#917c48;}.cls-55{fill:#f4f1e4;}.cls-56{fill:#575035;}.cls-57{fill:#a89a67;}.cls-58{fill:#f4f0e3;}.cls-59{fill:#292516;}.cls-60{fill:#c3a758;}</style></defs><path class="cls-1" d="M493.73,250.92C495,384.82,382.81,494.26,250,494.09,122.55,493.93,6.8,390.43,6.83,250c0-135,109.63-243.42,245.75-243.18C385.62,7,493.87,116.6,493.73,250.92Z"/><path class="cls-2" d="M15.1,249.79C11.73,123.69,122.19,13.44,251.73,14.39c126.92.94,239.08,106.77,234.82,244.47-3.76,121.25-105.44,232.81-246.29,227.55C120.12,481.92,12.91,381.81,15.1,249.79Z"/><path class="cls-3" d="M83.37,409.89c-18.48-18.71-32.45-40.45-43.64-64.15-18-38.15-23-78.67-19.17-119.94,4-43.61,20.45-83.16,47.64-117.62C101,66.62,143.1,38.35,194.77,26.28c69.8-16.32,135.07-4.49,193,38.26,50.2,37.05,80.63,87.13,90.65,149.23,9.57,59.26-2.6,113.78-35.07,163.9-7.18,11.08-14.47,22.31-25.05,30.73-4.07-2.73-4.2-7.06-4.1-11.17a311.5,311.5,0,0,0-3.86-58c1.66-12.31-.88-24.19-3.2-36.19-4-20.82-13.65-40.41-13.58-62.11-2.61-20-6.12-39.76-15.31-58.09-5.26-10.46-12.33-19.57-19.7-28.53-1.91-2.32-4.29-4.35-4.81-7.56,0-1.86.48-3.39,2.4-4.09,4.29,1,6.68-.61,7.88-4.92a114.56,114.56,0,0,0-2.28-70.21c-4.1-11.67-14.4-13.63-24.56-5.65a22.7,22.7,0,0,0-2.74,3.79c-3.6,5.89-8,11-14.25,14.26-6.08,4-9.23,10.9-15.44,14.87-5.1,3.27-10,5-16.24,4.53-13.21-1-26.47-1-39.18,3.84-12.91.18-25.39-2.31-37.67-6a89,89,0,0,1-14.88-27.34c-3.1-9.66-9.59-17.21-18.43-22.47-2.63-1.34-5.11-2.13-6.52,1.6-1.13,3-1.48,6.24-2.19,9.38-.9,14-.92,28.09-4,41.86-1.27,5.6-2,11.52-6.85,15.58-5.77,2.77-11.95,1.53-18,1.62-13.67.2-13.67.08-15.73,13-2.12,4.84-5.9,8.56-8.86,12.84a93,93,0,0,0-16.73,51.65,26.73,26.73,0,0,1-1.31,7.63c-7.77,12.85-10.27,27.07-10.84,41.79,0,1.29,0,2.58,0,3.88,0,1.72,0,3.45,0,5.18,0,1.3,0,2.6.08,3.9-.48,5.27.74,10.36,1.55,15.49,1.67,15.67,8.06,29.77,14.48,43.87a23.83,23.83,0,0,1-.55,11.44c-2,7.77-7.11,15.17-2.81,23.69-6.84,16.36-2,35.3-11.33,51.13C87.2,405.48,86.73,408.77,83.37,409.89Z"/><path class="cls-4" d="M271.65,480c-30.57,4-60.35-.22-89.73-8.65,4.44-4.38,7.85-9.83,13.51-12.94a9.43,9.43,0,0,1,6.33,1.49c1.71,1,3.73,2.16,5.48,1.1,11.28-6.85,25.35-9.08,33.89-20.45,5.56-7.42,13.51-10.71,21.86-14.19,9.47-4,20-5.73,28.21-12.64a7.59,7.59,0,0,1,4.49-2c16.3-.64,25.16-12.41,33.87-23.56,8.29-10.61,31.17-21.14,43.45-18.69,4,.79,6.5,2.36,7.48,6.5,2,8.42,3.4,16.63-1.12,24.87-2.92,5.31-4.43,11.37-7.64,16.56-1.77,2.87-1.18,5.08.64,7.41.09,1.44-.24,3-1.36,3.7-9.85,6.2-15.78,16.45-24.67,23.62-9.29,8.64-19.28,14.67-33,13-6.37-.78-13.7.67-19,4.54A58.72,58.72,0,0,1,271.65,480Z"/><path class="cls-5" d="M83.37,409.89c6.61-13.83,11.59-28,10.09-43.74-.28-2.91,1.35-5.29,2.42-7.82.86-2,2.92-4.9,2.23-6-6.64-10.5,2.49-18.86,3.37-28.25.23-2.48.22-5,.33-7.46,4.14.29,4.12,4.21,5.8,6.65,3.17,13.85,9.92,26.07,17.38,38,1.8,7.63-.65,15.54,1.6,23.1a8.06,8.06,0,0,0,2.65,2.48c8.64,2.31,17.62-.69,26.22,1.78,2.29,1.14,1.58,3.15,1.6,5.06.09,7.47.76,14.81,3.09,22,4,12.26-4.32,26.27-17,28.52-4.25.76-6.16,7.35-11.6,4.19A201.47,201.47,0,0,1,83.37,409.89Z"/><path class="cls-6" d="M131.58,448.42c2.17-.22,4.56,0,5.23-2.94.47-2.06,2-4.19,3.88-3.64,10.33,3,11.66-6,16.12-11.25,5.9-7,.94-13.26-.14-19.86-1.13-6.9-4.43-13.85.08-20.74,1.78-2.09,4.27-2.49,6.74-2.5,15.09,0,30.2-.89,45.26.49,4,3.81,2.78,12.18-2.8,15-3.2,1.64-4.67,4.25-6.81,6.71-5.72,6.56-11.45,13.43-20.74,15.31-2.94.6-11.41,13.38-10.58,16.7,1.54,6.16,6.35,7.78,12.13,7.44a43.64,43.64,0,0,1,12.35.83c5.95,1.38,6.7,4.56,2.64,9.81-4.24,3.95-6.09,10.61-13,11.52C164.32,465.5,147,459,131.58,448.42Z"/><path class="cls-7" d="M345.16,450c8.45-3.68,10.16-14.15,18.5-18.21,3-1.45,6.56-3.13,8-6.78a15.18,15.18,0,0,1,5.31-9.89c5.79-5.17,10.13-11.57,14.94-17.58,2.88-3.6,3.91-7.64,4.23-12.2A199,199,0,0,1,400.07,356c2.22-5.82,4.68-11.55,6.19-17.63.41-1.68,1.06-4,3.72-3.27a2.33,2.33,0,0,1,1.61,3.19c3.74,13,4.83,26.3,5.06,39.77.17,10.12-1.52,20.38,1.63,30.35-15,17.83-33.48,31.38-53.5,43-5.29-1.51-10.32-.62-15.39,1.3C346,454,345.9,453.67,345.16,450Z"/><path class="cls-8" d="M345.16,450c1.09,4.9,3,.54,4.3.25,5.26-1.16,10.63-5.06,15.32,1.13-29.06,16-59.61,27.11-93.13,28.6,1.11-2.73,3.3-3.44,6-3.46,4.18,0,7.28-2.32,10-5.2,7.11-7.44,17.92-9.93,25.87-8.63,10.7,1.75,17.15-3.26,25.21-6.83C341.89,454.49,343.06,452,345.16,450Z"/><path class="cls-9" d="M354.71,147.17c25.86,25.59,38,57.15,40.48,92.92,1.83,22,3.4,44-4.34,65.34-2.82,10.88-7.39,21.05-12.68,30.93-4.34,6.19-8.25,12.72-13.8,18-4.63,5.45-8.46,11.94-16.47,13.16-5.7-1.33-9.92,3-15,3.87-4.33.75-10,4.31-13.05-.52-2.58-4.07,2.82-7.15,5-10.45,2.88-4.33,6-7.52-1-12-4.14-2.65-.91-9.31-1.61-14.12-.23-1.58,2-3.72-2-3.72-7.25,0-4.68-4.63-2.87-7.86,4.06-7.24,8.3-14.38,12.46-21.57,8.07-13.93,14.4-28.67,20.3-43.61,2.6-6.59,2.56-13.55,2.95-20.45-1.24-9.86-1.6-20.43-4.53-29.36-5.3-16.21-9.86-35-26-43.91a96.69,96.69,0,0,1-29.88-25.16c-3.06-3.86-7.35-4.29-12.12-3.22-4.22,1-9.67,5.41-12.58-.62-2.82-5.84.91-11.1,5.21-15.39a5.38,5.38,0,0,1,1.89-.88,224.36,224.36,0,0,1-24.4.21c-6.07-.27-9.4,2.2-13.68,6.67-6.4,6.7-12.53,13.08-15.81,21.88-1.06,2.85-2.7,5.55-3.23,8.54-2.19,12.2-12.73,16.87-21,23.48-2.84,2.26-5.22.58-6.51-2.47a7,7,0,0,1-.47-4.09c4.29-20.68,10.71-40.21,29.75-53.89-10.48,0-20.49,0-30.52.09q-5.92.15-11.85,0c-19.16-2.41-32.84,9.9-48.11,17.91-3.24,7-1,14.52-1.93,21.7-.4,2.9,1.45,7.57-4.34,7.53-4.09-8.26-1.37-17-2-25.58-.31-3.23.78-6.09,2.3-8.84,1.08-17.88-2.29-16.46,17.67-16.47,5.8,0,11.6-.16,17.39-.25a11.13,11.13,0,0,1,2.23-1.43,14,14,0,0,1,4-.67c2.36-.1,4.72-.3,7.09-.2,11.22-.32,22.44-.33,33.67-.1,26.45-.38,52.89-.26,79.33-.09a55.53,55.53,0,0,1,12.67,2c2.48.71,4.92,1.57,7.37,2.38,3.38,1.31,6.88,2.3,10.28,3.58,4.21,2.25,9.05,3.47,12.18,7.46,1.5,4.38-1.2,7.33-3.65,10.26s-5.33,5.19-.43,8.54c4,2.76,7.43,4.78,11-.57,2-2.93,3.91-6,6.83-8.18a4.78,4.78,0,0,1,2.3-.41C348.16,139.53,352.41,142.19,354.71,147.17Z"/><path class="cls-10" d="M106.81,323.4c-3.46-.93-2.72-5-5-6.78-8-13.45-13.36-27.77-14.83-43.43,2.25-2.94-2.37-8.71,2-9.33,4.65-.68,4.57,5.22,5.28,8.71,1.12,5.47,5,5.82,9.25,5.82,3.72.28,4.68-3.1,6.65-5.14-1.47.43-1.5,2.92-3.53,2.58-5.79-1.79-8-5.79-8.15-11.75-.06-3.47.19-7.14-1.33-10.54-4.2.18-7.2,4.55-11.7,3.08l0-3.35c2.21-3.43,6.53-3.93,9.51-6.65-3.43.14-6.14,3-9.57,1.68l.07-3.36c7.16-4.17,14-8.53,16.46-17.31a3.56,3.56,0,0,1,3.93-2.52c2.46.54,2.27,2.88,2.07,4.77a52.89,52.89,0,0,0-.1,14.93c.85-17.43,4.89-31.26,21.82-37.12,2.87,1,5.65,2,5.76,5.76-9.81,4.83-15.29,12.48-15.32,23.65a17,17,0,0,1-.84,3.17c-4.41,11.76-3.58,22.91,3.87,33.29,1,4.24,2.2,8.43,2,12.84-.77,6.33-2.14,12.19-7.23,16.91-3.6,3.33-4.4,8-2.4,12.92a33.34,33.34,0,0,1,2.29,14.51c-1.6,3.33-3.72,3.54-6.35,1.09A16.78,16.78,0,0,1,106.81,323.4Z"/><path class="cls-11" d="M363.37,353.37l12.77-16.88a122.06,122.06,0,0,1,13.06-8.83,15.59,15.59,0,0,0,6.56-7.25c3.33-7.37,1.54-10.85-7.25-13.8,6.22-21.77,7.09-44.08,6.68-66.52,3.37,6.4,0,13.62,2.69,20.25,2.34,5.76,3.76,11.91,5.3,18,4.4,17.19,9.95,34.17,10,52.18,0,2.65.94,5.62-1.62,7.79-1.54-2.22-2.83-4.17-3.48.56a53.42,53.42,0,0,1-6.32,17.86c-7.36-13.92-7.59-14-20.73-4.29C373.7,357.83,367.86,358.15,363.37,353.37Z"/><path class="cls-12" d="M286.62,115,205.05,115a25.11,25.11,0,0,0-15.2-13c-.57-3,1.72-4.58,3.29-6.52,6.11-4.21,12.27-5.68,18.54-.31,12.56,3.55,25.42,5.31,38.37,6.6,12.36-3.11,24.95-2.81,37.47-1.92,6.4.46,7.55,4.15,4.1,9.84A24.51,24.51,0,0,1,286.62,115Z"/><path class="cls-13" d="M129.9,208.3c-17.21,12.53-17.21,12.53-20.44,40.21-5.42-4-5.42-4-3.89-22.67-4.65,8.65-7.9,18.86-20.13,19.1,0-15.4,2.38-30.19,11.19-43.32,1.61-2,1.48-5.55,5.12-5.76,3.41,2,6,1.64,9.11-1.4,3.5-3.41,6.71-9.11,13.39-5.74,2.45,5.51,1.73,12.36,7.31,16.63C132.65,206.19,131.23,207.71,129.9,208.3Z"/><path class="cls-14" d="M335,61.74c8.42-10.62,22-9.3,27.95,2.67,4.39,8.81,5.74,18.46,6.74,28,1.54,14.73,1.46,29.57-3.05,44-.66,2.09-1.41,4.15-2.12,6.23-2,6-4.75,5.55-7.87.78-2.7-2.91-3.3-6.67-4.18-10.33,2-7.76,4-15.51,5.77-23.34,2.36-10.49-.63-18.47-8.47-25.17C346.54,75.83,339.78,69.43,335,61.74Z"/><path class="cls-15" d="M335,61.74c7.47,5.54,13.56,12,15,21.72.42,5.57-4.26,6.8-7.8,8.34-8.95,3.9-14.68,11.72-22.24,17.29-2.05,1.51-2.48,3.56-1,5.81.78,3.19-.52,5.38-3.3,6.85l-1.14.35-9.74-3.41c-1.54-4.35.32-7.82,2.81-11.17s4-7.14,6-10.73c.57-1,1.23-1.93,1.88-2.87,4.31-8.11,10.93-14.67,15.25-22.77,1-2,2.57-3.65,2.48-6A3.48,3.48,0,0,1,335,61.74Z"/><path class="cls-16" d="M211.68,95.11c-6.32-1.83-12.48-1.91-18.31,1.65-4.45,2.18-6.62-1.1-8.68-3.92-2.68-3.67-4.24-8.19-3.28-12.49,2.21-9.91,0-19-3.29-28.18-.83-2.29-1.64-4.77.28-7,9.94,5.22,16.95,13.35,20.08,23.85C201.36,78.63,207.16,86.48,211.68,95.11Z"/><path class="cls-17" d="M316.7,95c-.52.61-1,1.22-1.55,1.84a4.72,4.72,0,0,1-.65-.51,4,4,0,0,1-.4-.7c-2.67,4.67-5.12,9.47-8.13,13.94-2,3-3.88,6-7.65,7.06L286.62,115c.78-2,1.5-4.06,2.35-6s4.15-3,3-5.32c-1.43-3-4.83-1.89-7.46-1.91-11.5-.08-23,0-34.51-.06,5.55-6.27,13.47-3.21,20.16-4.55s14.26-.35,21.48.19c9.89.74,15.46-7.11,21.41-13.57,2-2.18,2.6-6.16,6.91-5.34C321,84.37,317.84,89.48,316.7,95Z"/><path class="cls-18" d="M178.4,45.13c1.68,5.75,3.27,11.54,5.08,17.25a25.25,25.25,0,0,1,.34,14.42c-2.27,9,1.72,16.43,9.55,20,.26,2.59-2.3,3.26-3.35,4.95-6.92,4.06-12.62,9.93-20,13.29l-6.52-.07c-1.09-2.8.63-4.9,2.09-6.78,8.54-11,10.19-24.29,12.13-37.41A20.1,20.1,0,0,0,173.82,55c-1.93-2.47-2.53-5.42-3.74-8.15C172,42.39,175.12,43.32,178.4,45.13Z"/><path class="cls-19" d="M101.66,196.65l-5,5c.51-2.24,1-4.49,1.54-6.74,2.29-17.45,7.16-34,17.07-48.79,1.92-2.87,3.47-6.54,8-6.18l.15,26.79c-.06.38-.12.76-.17,1.14C115.29,176.89,110,187.91,101.66,196.65Z"/><path class="cls-20" d="M170.08,46.88c9.52,9,11.48,19.45,8.75,32.24-2.8,13.15-6.69,25.37-15.32,35.81L160,115c8.19-16.08,9.56-33.16,7.64-50.77-.27-2.41-.64-5,.61-7.35C168.87,53.54,169.47,50.21,170.08,46.88Z"/><path class="cls-21" d="M105,280c-10.93.82-10.91.81-13.37-10.93A14.4,14.4,0,0,0,90.43,266a6.92,6.92,0,0,0-1.1-1.27c-2.09,2.58.49,6.29-2.35,8.51-1.14-5.47-2.38-10.92-1.58-16.57,12.95-6.75,13.17-6.78,14.95,7.22A15.78,15.78,0,0,0,106.81,275C108.42,277.46,106.94,278.8,105,280Z"/><path class="cls-22" d="M123.23,139.91c-10.85,10.64-16,24.25-19.81,38.48-1.51,5.58-2.29,11.38-5.25,16.49-.47-1.23-1.5-2.54-1.33-3.68,3.34-22.24,9.32-43.34,26.47-59.45C123.28,134.47,123.26,137.19,123.23,139.91Z"/><path class="cls-22" d="M168.26,56.87c.08,8.47,1.66,16.82,2.12,25.29.69,12.52-3.13,23.09-10.37,32.83l-1.64,0c6.44-14.19,7.27-29.42,8.39-44.62C167.1,65.89,165.14,61.08,168.26,56.87Z"/><path class="cls-23" d="M316.7,95c-.41-5.83-.24-11.53,3.31-16.56,5.26-3.61,9.17-8.56,13.27-13.33,2.64,5.57-2.14,9-4.28,12.84C325.58,84,320.87,89.35,316.7,95Z"/><path class="cls-24" d="M353.27,133.32c3.18,2.65,3.45,6.28,3.39,10-1.53.83-1.73,2.33-2,3.82l-11.18-8.77C346.13,135.47,348.9,132.87,353.27,133.32Z"/><path class="cls-13" d="M85.37,248.3c4.34-1.6,10.84-7,12.61-3.13,1.93,4.21-6.69,4.72-10.21,7.55-.56.45-1.55.38-2.34.55Z"/><path class="cls-25" d="M363.37,353.37c6.22,3.62,11.46.72,16.51-2.65,1.58-1.05,2.72-2.72,4.17-4,3.8-3.3,8.35-4.63,13-2.91,6.18,2.28,4.17,8.16,4.73,12.84-1.17,9.7-2.7,19.37-3.37,29.1a24.32,24.32,0,0,1-4.49,12.89c-6.55,9.54-15.62,16.89-22.22,26.34-1.53-2.19-3.68.84-5.82-1.13,5.66-8.57,9.16-18.4,13.34-27.9,3.35-7.62,1.74-16.61-2.31-22.57-2.34-3.45-11.73-6-17.52-2.09-10.78,7.35-24.33,10.1-31.83,23.32-4.43,7.83-14.43,12.5-21.91,18.61-1.58,1.29-3.14.21-4.73.13-1.93-.1-5-.73-5.64.22-6,8.32-17.37,5.9-24.11,12.49a6.68,6.68,0,0,1-3.55,1.93c-11.82,1.25-20.22,7.25-27.34,16.75-3.75,5-10.86,11.3-15.21,11.42-7.71.21-11.71,5.25-17.54,7.51-2.57,1-4.25.5-5.85-1.33a8,8,0,0,0-6.75-2.56c3.26-5.79,1.08-8.23-5.06-8.23-4.1,0-8.24-.35-12.28.08-6.1.66-8.95-3.78-12.16-7.36s1.15-5.78,2.47-8.49c1.57-3.22,3.22-6.42,4.85-9.62s3.34-6.07,7.56-3.37c.89.56,2.45,1.61,2.76.4,2.27-8.82,16-8,15.74-18.78,0-.44.59-1.3.89-1.29,9.18.24,7.73-9.09,12-13.23,3.15-3.13,7.19-2.23,11-2.3,22.26-.43,44.54.68,66.77-.63,19.23-2.14,37.38-7.36,53.33-18.85a7.82,7.82,0,0,1,5.39-1.77C354.89,364,358.23,357.63,363.37,353.37Z"/><path class="cls-26" d="M291.9,388.39c-2.94,2.3-6.4,1.38-9.62,1.4-23.53.11-47.06.1-70.58.13l-54.95.07c-10-1.23-20.25,1.91-30.12-1.69,4.9-3.8,10.63-1.61,16-2.17,3-.31,6.06.32,10.14-.57-5.17-9.39-13.33-14.5-22.19-18.64-3.68-1.72-3.09,1.62-3.34,3.65-.65,5.34,1.58,11.07-2.15,16-3.57-8.7-.59-17.81-1.72-26.67-4.22-7.74-2-16.09-2.31-24.21.29-2.9,0-6.05,3.22-7.72.76.32,1.77.67,1.82,1.5.47,7.61,6.27,11.51,10.52,16.88,12,15.14,29,18.64,45.52,17.39,25.51-1.94,51.48-4,75.52-14.61,8.63-3.83,17-8.2,25.17-12.86,2.76-1.56,6.3-4,9-.72s.66,7-1.58,9.87c-2.9,3.76-6.88,6.41-10.57,9.34-17.22,13.65-34.55,27.1-57.37,30.6,19.64.65,39.13.55,58.62.67C284.67,386.05,288.77,385.12,291.9,388.39Z"/><path class="cls-27" d="M125.07,386.57V373.28c0-11.79,0-11.73,10.19-6.61,9.34,4.68,16.25,11.84,22.77,21.63h-31.4Z"/><path class="cls-28" d="M123.24,335.1q.06,12.4.11,24.8c-9.39-10.41-15.18-22.45-16.54-36.5,4.09,1.71,3.25,9.47,9.88,8.07C120.12,330.43,121.44,333.2,123.24,335.1Z"/><path class="cls-27" d="M291.9,388.39c-23.3-.05-46.59-.06-69.88-.22-1.89,0-5.05,1.46-5.49-1.62-.39-2.74,2.43-3.1,4.7-3.47,26.25-4.37,45.82-20.57,65.26-37,.63-.53,1.52-.84,2-1.48,1.83-2.43,4.08-5.77,2.31-8.1-2.12-2.8-5,.49-7.13,1.74-15.05,9-30.57,17-47.85,20.39-16.16,3.21-32.48,5.88-48.84,7.78-14,1.62-27.33-2.78-40.39-7.46a13.71,13.71,0,0,1-6.32-5.17c-2.13-2.87-4.14-6.56-7.11-7.93-8.15-3.78-9-10.23-8.19-17.74-1.2-5.37,3.1-5,6-5.36,5.46-.68,11-.2,16.5-.17,3.26,0,6.65.63,9.65-1.26,4.7-5.22,1-11.76,2.74-17.41a8,8,0,0,1,1-2.37,10.31,10.31,0,0,1,9-3.42c5.83.52,11.46,1.11,17-2,2.67-1.51,5.22,1,7.77,2,11.85,4.47,19.28,1.92,23.41-8,2.7-6.46.6-9.54-6.55-9.08-5.86.38-11.38,2.48-16.88,4.38-9.14,3.15-17.33,1.23-25.41-3.65-5.46-3.29-4.54-10-8.47-13.9-1.66-3.68-1.33-7.47-.69-11.28.74-7.53,8.09-11.75,9.08-19.63,1.32-10.58,2.11-10.57-7.7-16.06a6.75,6.75,0,0,1-3-4.13,26.33,26.33,0,0,1,.16-10.79c2.08-7-.45-14.51,1.83-21.54.91-1.75,3.1-2.74,4.06-1.58,4.42,5.32,8.83,3.4,13.9,1.18,4.81-2.1,9.25-.46,12.69,3.53a27.9,27.9,0,0,1,6.34,11.59c1.55,6.65,3.07,11.92,12,10.81,3.65-.45,6.16,3.74,7,7.32,1.82,7.46,5.55,8.34,12.05,5.06,3.05-1.54,7.45-3.69,10,1.66,1.31,27.6.21,55.21.6,82.81.07,4.41-.49,8.84.62,13.17,3.91,4.7,9.25,2.28,13.94,2.66,23,1.84,35.51-9.19,45.43-30.14,4.39-9.27,6.38-19.38,6.93-29.7,1.39-22.68-1.23-44.51-13.52-64.33a6.8,6.8,0,0,1-1.15-5.5c2.34-3.54,6-3.69,9.59-3.38,12,1,24,2.74,36.16,2.18,7-.33,12.6,7.41,12.84,16.57a91,91,0,0,0,5.07,28.29c1.94,17-6.47,31.05-12.92,45.57s-14.41,28-22.85,41.3c-1,1.55-2.38,3.1-1.69,5.37,2.43,1.32,4-1,6-1.52,1.33-.39,2.78-1.13,3.79.21s0,2.76-1.07,3.51c-4.47,3.14-.21,7.31-1.38,10.65-1.83,5.22.34,6.45,5.08,7.18,2.51.39,2,3.79,1.4,5.78-.54,1.73-2.55,3-3.14,4.74-1.49,4.37-7.44,5.88-7.06,11.33,5.28-.71,10.79.18,15.66-3.16,3.4-2.33,7.21-4.44,11.4-1.26C331.85,380,312.93,386.89,291.9,388.39Z"/><path class="cls-29" d="M354.94,236.67c-6-8.24-5.73-18.1-6.49-27.48-1-12-5.43-15.47-17.08-14.67-8.87.61-17.95-1.17-26.89-2.26-4.44-.54-8.72-1.16-12.85,1.11-2.56.7-3.51-1.51-5-2.72-7-8.25-16.48-9-26.28-8.78a15.21,15.21,0,0,1-2.39-.52c-4.53-1.19-8.52-4-13.43-4.13-11-.23-16.6,9-24.52,14.09-2.06,1.32-.82,4.11.8,5.89,2.49,2.72,5.68,4.35,9,5.77,9.71,4.08,11.29,8.54,6.75,18.75-3.38,1.14-7.36,1.52-10,3.58-7.25,5.61-9.43,1.57-11.24-4.82-1.76-6.24-3.76-12-12.52-7.88-4.73,2.25-5-2.71-5.39-5.1a44.55,44.55,0,0,0-4.78-14c-5-9.2-9.12-10.83-18-5.58-4.85,2.89-7.88,4.15-9.29-2.85-.15-.75-2.3-1.11-3.53-1.65,0-8.87-3.83-17-4.81-25.75.25-4.33,3.27-6.84,6.26-9.26,7.13-5.76,10.16-4.71,12.14,4,.36,1.57,0,3.74,1.82,4.26,2.12.61,3.5-1.31,4.72-2.73a29.92,29.92,0,0,0,7-25.35c-.66-4-2.19-8.13,1-11.84h35.21c-21.3,12.09-27.07,32.88-32.85,53.66-.75,2.72-1.75,6.09.64,7.79,3.28,2.33,4.16-2.42,6.43-3.39,15.26-6.54,16.86-22.21,22.72-34.79a31.24,31.24,0,0,1,10-12.62c2.82-2.07,6.64-3.18,5.3-8.11-.64-2.37,1.56-2.53,3.21-2.54,13.7,0,27.4,0,41.57.93-7.37,1.42-11.5,5.57-13.17,12.42-.49,2-.89,3.77.81,5.3s3,.38,4.59-.13c15-4.78,15.81-5.19,24.42,8,6.79,10.39,18,13.39,27.22,19.74a30.48,30.48,0,0,1,10.69,12.33c3.78,8,7.32,16.13,11.93,23.62,5.06,8.22,1.39,17.43,4.14,25.94C354,228.46,356.65,232.39,354.94,236.67Z"/><path class="cls-27" d="M190,116.79c.56,6.26,1.67,12.52,1.57,18.76a29.46,29.46,0,0,1-11.67,23.51c-3.28,2.57-6.06,2.63-6.56-2.72-.32-3.39,1.84-8.79-1.94-9.66-4.1-.94-7.46,3.63-10.53,6.72-1.41,1.4-2.51,2.91-2.49,5-9.61,2.92-16.5,8.51-18.74,18.81-.29,1.37-1.61,2.2-3,2.75a13.24,13.24,0,0,1-4,.62c-10.84.24-13.39-3.58-9.34-13.93l0,0c3.62-7.91.77-16.27,1.7-24.37.32-2.76-1.3-6.45,3.31-7.27,7-4.53,15.47-6,22.61-10.29,1.75-1,3.71-1.41,5.43.09s1.3,3.54.77,5.42c-1.61,5.74-5.8,10-9.64,15.46,11.29-9,21.41-17.81,29.18-28.95Z"/><path class="cls-30" d="M353.27,133.32c-3.12,1.94-5.75,4.82-9.74,5.08l-1.71-.4a1.92,1.92,0,0,1-.17-2.15c10-7.47,7.82-20.3,13.94-30-8.21-.21-15.86-2.83-22.94,1.9-4.73,2.2-9,5.23-13.86,7.25-7.82-2.67-2.1-6.11.13-7.78,8.52-6.36,15.13-15.39,25.84-18.75,2.45-.77,4-2.8,5.28-5,8,2.64,11.31,9.75,11.15,16.65C360.94,111.5,359.34,123.08,353.27,133.32Z"/><path class="cls-29" d="M176.74,116.79c.38,4.65-2.54,8-5.33,10.78-7.56,7.41-15.63,14.29-23.58,21.29a3.32,3.32,0,0,1-2.91.62c-1.65-.92-.79-2.26,0-3.44,3.3-4.73,6.82-9.33,9.71-14.31.87-1.5,2.86-4.07.6-6-1.74-1.47-3.69.18-5.32,1.06a89.89,89.89,0,0,1-21.55,8.23c1.06-4.87,5.89-4.39,9-5.92,6.86-3.32,13.79-6.09,20.07-10.85C162.82,114.27,170.27,117.35,176.74,116.79Z"/><path class="cls-31" d="M388.51,306.61c2.77-.63,6-2.63,8.09.48,2.25,3.33,4.29,6.84,2.4,11.51-4.25,10.46-13.27,14.46-22.86,17.89C380.69,326.7,385.33,317,388.51,306.61Z"/><path class="cls-32" d="M341.61,136.74a5.36,5.36,0,0,1,.21,1.26c-1.45,2.34-2.71,4.83-4.37,7-6.89,9-10.94,9.21-19.28,1.34-2.8-2.65-.72-4.47,1-6.24,3.25-3.4,7-6.46,7.47-11.61,1.5-1,2.94-.34,4.39.15a47.78,47.78,0,0,1,8.86,5.21A4.41,4.41,0,0,1,341.61,136.74Z"/><path class="cls-33" d="M170,115c6.13-5.22,10.83-12.6,20-13.28,10.23.72,13.26,3.39,15,13.27Z"/><path class="cls-15" d="M329.66,129.76l-3.05-1.27-12-6.39.83-.72a91.24,91.24,0,0,0,8.69-4.66c6-3.7,8.84,1.5,12.56,3.91,1.56,1,.53,3-.39,4.45C334.69,127.5,332.24,128.72,329.66,129.76Z"/><path class="cls-34" d="M298.32,116.63c6.19-7.26,10.55-15.74,16.15-24.81.33,2.43.5,3.72.68,5-1.1,4.34-3.61,8-5.81,11.76-1.51,2.6-5.5,5.05-1.63,8.76l-2.87,1.33Z"/><path class="cls-35" d="M118.57,236.63c1.05-16.63,3.17-19.65,16.51-23.44,9.4-4,17.53-1.34,25,4.74l.2.33c3.36,7.5,2,15.32,1.59,23.08-1.15,4.09-4.42,6.58-7.16,9.47a21.53,21.53,0,0,1-9.51,5.71c-2.43.61-4.66,1.37-5,4.35-1.64,4.19-4.65,6.46-7.8,2.25C126.43,255.09,119.57,247.33,118.57,236.63Z"/><path class="cls-36" d="M160.09,217.93a64.55,64.55,0,0,0-25-4.74c-1.33-2.05-4.41-2.24-5.18-4.89a29.8,29.8,0,0,1-6.6-20c-3-5.85-.89-8.75,5.37-9.08,2.7-.14,5.41,0,8.11,0,.89,0,1.79,0,2.69,0,4.63,6.56,10.24,10.39,18.68,7,1.37-.55,2.58.42,2.71,2.14-.3,6.07.61,12.16-.51,18.2Z"/><path class="cls-37" d="M160.4,323.08c-8.93,3.92-18.31.67-27.41,1.78-2.91.36-7-1.76-8,3.27-2.22,1.91-1.21,4.63-1.72,7-2.79-.11-4.3-2.53-6.54-3.63-2-6-1.56-12.43-4.55-18.23-1.42-2.75-.19-5.82,1.95-8.39,4.59-5.51,8.62-11.38,9.62-18.77,2.82.05,4.36,1.78,5.44,4.11,1.42,9.25,6.39,16.86,11.9,24,4.22,5.47,10.46,7.65,17.39,7.62A4.89,4.89,0,0,1,160.4,323.08Z"/><path class="cls-38" d="M118.57,236.63c4.45,7.79,8.7,15.7,13.54,23.24.79,1.24,4.13,8.8,6.28.12,7.13-4.37,11.07,2,16.42,5,2-5.34-1.89-10-1.28-15,1.38-2.9,3.84-4.81,6.24-6.78,2.41,1.73,2.33,4.32,1.93,6.74-1.31,7.88-.79,15.77-.28,23.65-3.24,5.1-7.73,2.89-11.75,1.7-8.82-2.61-17.63-4.05-26.73-1.71l-1.39-.06C110.53,262,113.89,249.37,118.57,236.63Z"/><path class="cls-38" d="M128.31,290.13l-4.59-4q-1.08-6.3-2.17-12.6l.57-.48c13.51.13,26.66,1.87,38.8,8.38a14.47,14.47,0,0,1,.47,10.91c-4.83,5.06-10.24,9.2-17.36,10.52C136.34,301.64,132,296.32,128.31,290.13Z"/><path class="cls-39" d="M105,280l1.83-5,3.85-5.15C110,273.89,110.72,278.76,105,280Z"/><path class="cls-40" d="M138.32,179.77a38.09,38.09,0,0,1-6.47.27c-6.46-.81-9.08,2.05-8.55,8.3a22.69,22.69,0,0,0-12.47,8.86c-3.65,5.36-6.4,4.4-9.17-.55,5.66-11.13,12-21.75,21.69-30,.36,13.54-2,11.59,15,11.7.39.33.52.65.37,1S138.46,179.77,138.32,179.77Z"/><path class="cls-41" d="M329.66,129.76c.16-1.88,1.61-2.7,2.87-3.81,3.48-3.06,3.54-4.25,2.37-4.39-3-.36-2.38-7-7.86-3.62-3.1,1.91-7.16,4.38-11.62,3.44l3.36-6.36c2.49-5.54,8.16-6.12,12.84-8.25,5.42-2.32,11.15-2.47,16.92-2.51,3.75,0,5.51,2.51,4.51,5.3-3.27,9.15-4.52,19.46-13.2,25.87Z"/><path class="cls-42" d="M288.28,190.08l3.35,3.29c14.95,21.09,18.46,44.88,16.53,70-9.32,8.34-16.8,19.32-30.8,20.89a17.39,17.39,0,0,0-9,4.14c-7.4,6.14-8,11.07-2.67,21.4,4.66,9,3.66,10.78-6.63,10.55a52.59,52.59,0,0,0-15.6,1.54c-2.37.66-5.86,1.82-6-2.95q0-45.62,0-91.18c-.29-3.84,2.68-4.26,5.33-5,5.86-1.6,11.29-4.32,16.92-6.5A38.34,38.34,0,0,0,280.28,198C282.13,194.65,284.34,191.46,288.28,190.08Z"/><path class="cls-43" d="M238.38,321.57c9.06-4.81,19.12-2.8,30.46-3.65-6-5.06-5.42-12.32-10.92-16.14-1.22-.85-1-2.49,0-3.7,5.48-6.53,9.13-15.21,19.25-16.28,8.31-.88,15.13-4.25,20-11.38,2.58-3.8,7.2-4.93,11-7.08-1.67,19.47-7.06,37.24-21.78,51.3-7,6.72-15.14,10.26-24.59,10.06-7.86-.17-15.93,2-23.59-1.52-.41-.41-.52-.78-.33-1.12S238.22,321.57,238.38,321.57Z"/><path class="cls-44" d="M161.8,268.28c1.3.21,3.78-.21,3.6,1.07-.94,6.82,3,9.76,8.27,12.55a23.75,23.75,0,0,0,19.89,1.62c5.19-1.79,10.51-3.26,15.81-4.73,4.58-1.27,9.63-.42,12.21,2.87,2.21,2.82-.11,7.32-2,10.72-6.23,11.26-16.65,13.71-28,6.65-1.12-.7-3.2-2-3.41-1.73-6.17,7.13-13.89,2.25-20.86,2.87a34.14,34.14,0,0,0-5.57,1.46c-.81-.77-1.81-1.79-1.6-2.75C162.38,288.76,158.62,278.33,161.8,268.28Z"/><path class="cls-45" d="M238.38,321.57c-.07.54-.13,1.08-.18,1.61-2.53-2.54-1.43-5.75-1.45-8.67q-.18-46.39-.17-92.79a68.42,68.42,0,0,1,.14-7.45c.61-4.87-1-7.85-6.06-8.92a20.88,20.88,0,0,1-6.85-2.77c-3.67-2.36-8.5-5.1-7.92-9.65.47-3.7,4.43-6.74,8.69-8a5.88,5.88,0,0,0,2.84-1.57c9.13-11.41,19.75-9.82,30.92-3.64-2.2,2.95-5.3,2.34-8.3,2.11-5.07-2-9.09,1-13.26,2.94-4.8,2.21-6.87,6-6.19,11.42s4.93,5,8.49,5.9a8.29,8.29,0,0,1,1.31,3.6c.13.91.21,1.82.27,2.73-.41,5.58,1.5,11.47-2.29,16.57Z"/><path class="cls-46" d="M138.32,179.77a11,11,0,0,0,0-1.41c1-13.25,7.6-19.79,20-20,1,2.84,7,5.09.93,8.79-.94.57-.53,2.59.37,2.82,11,2.87,1.2,9,2.17,13.39-1.13,7.69,1.53,15.61-1.5,23.17q-.27-10.28-.53-20.56a8.73,8.73,0,0,1-2-2.37c-2.29-2.35-5.36-1.28-8.06-1.83a6.1,6.1,0,0,1-3.11-1.35c-1.8-5.22,1.18-9.15,4.3-13.57-8.5,1.94-5.48,9.34-8,13.78a3,3,0,0,1-3.3-.58Z"/><path class="cls-47" d="M162,219.89c9.82,2.67,11.28,6.38,9.53,15.9-1.41,7.68-5.25,13.47-9.73,19.26C160.47,243.32,160.05,231.6,162,219.89Z"/><path class="cls-48" d="M162,219.89q-.1,17.58-.2,35.16,0,6.61,0,13.23,0,16.68-.08,33.35c-.05.53-.08,1.06-.08,1.59a2.14,2.14,0,0,1-2.4-.85,8.34,8.34,0,0,1,.51-9.16q0-5.88,0-11.77c-1.1-2.08-1.79-4.16,0-6.27l0-32q.25-12.45.52-24.91Z"/><path class="cls-44" d="M160.21,303.29l1.43-.06c-.46,6.61,1.44,13.38-1.24,19.86l-.56.22c-2.54-3.27-2.07-7.11-2.06-10.87.08-2.8-.09-5.64,1.39-8.21C159.51,303.91,159.86,303.6,160.21,303.29Z"/><path class="cls-49" d="M238.37,225q0-9.12,0-18.23c1.86-2,4.39-1.91,6.82-2.11,9.88-.81,16.49-6.16,20.61-14.91-.11-4.29-5.9-5.12-5.83-9.52,11.17-1.64,21.17,0,28.33,9.9-3.74,5.64-6.81,11.91-11.36,16.79C266.62,217.9,253.09,222.89,238.37,225Z"/><path class="cls-35" d="M260,180.18c2.45,3.11,7.35,3.71,8.44,8.23-4.05,4.39-8.29,8.6-12.64,12.7-3,2.8-6.23,4.37-10.32,2.4-2.5-1.4-5.84-.95-7.87-3.46a7.83,7.83,0,0,1-.87-2.14,17.13,17.13,0,0,1-.33-3.57c0-8.24,6.69-10.54,12.28-13.82l9.7-.84Z"/><path class="cls-50" d="M339.85,135.43c3.55-7.66,7.15-15.32,10.66-23,2.92-6.41-.44-8.13-5.95-7.13-4.31.78-8.53,1.78-12.94,1.47,4-5.62,9.89-3.1,15.08-3.54,3.68-.31,7.34,2.11,11.66-.07-7.44,9.6-2.62,23.71-13.28,31.68-1.12.84-2,1.74-3.47,1.9Z"/><path class="cls-51" d="M153.53,250c4.46,5.6,4.39,11.86,3.23,18.63-6.3-3.43-10.63-9.66-18.37-8.59,0-2.56.2-5.05,3.65-4.93C146.75,255.23,149.89,252.06,153.53,250Z"/><path class="cls-52" d="M146.87,180.23l3.18-.09c2.6,3.18,6.8,1.17,9.81,3,0,1,0,1.91,0,2.86-10.52,6.39-16.61,4.6-20.2-5.92l3.73-.11C144.6,178.89,145.7,180.12,146.87,180.23Z"/><path class="cls-53" d="M160,311.55c0,3.92-.07,7.84-.11,11.76-16.5-.08-34-18.5-31.53-33.18,5.74,2.92,8.6,9.48,14.88,11.71,2.62.59,4.53,2.32,6.46,4C152.61,308.61,157.07,308.66,160,311.55Z"/><path class="cls-35" d="M159.74,275.17q0,3.13,0,6.27L122.12,273c8.42-6.17,17.16-2.36,25.76-.66C151.85,273.14,155.5,275.39,159.74,275.17Z"/><path class="cls-54" d="M148.33,306.88l-5.14-5c6.33-1.32,10.18-7.4,16.57-8.63l.45,10.08-.27-.07C156.77,306.66,152.3,306,148.33,306.88Z"/><path class="cls-55" d="M238.18,198.39a2.49,2.49,0,0,1,.62,1.23,1.33,1.33,0,0,1-.67,2.11c-6.23,4.81-8.34-.15-9.58-4.63-1.33-4.78-.34-10.19,4.49-12.25s8.8-8.94,15.6-4.33a10,10,0,0,1-6.23,6.11C237.66,188,238,191.45,238,195c-2.38,1-2.83-4-3.89-2.21C232,196.23,236,197,238.18,198.39Z"/><path class="cls-56" d="M244.91,201.79c4.25,1.69,7.35.47,10.63-2.82,3.89-3.9,6.54-9.55,12.85-10.56-3,12.06-13.38,18.39-30,18.31l-.06-1.75C240,202.9,243.13,203.74,244.91,201.79Z"/><path class="cls-57" d="M244.91,201.79c.29,3.08.29,3.08-6.62,3.18,0-1.08-.1-2.16-.16-3.24.23-.7.45-1.41.67-2.11Z"/><path class="cls-58" d="M146.87,180.23c-1.29,1.64-2.4.6-3.52-.24-4.25-7.33,0-11.77,5.43-15.74,1.42-1,3.1-1.11,4.29.6,1.07,1.52,1.38,3-.64,4C147.75,171.29,148.8,176.49,146.87,180.23Z"/><path class="cls-59" d="M159.86,183.16c-3.81.73-8.22,3.43-9.81-3C153.26,181.33,158.32,176.55,159.86,183.16Z"/><path class="cls-60" d="M148.33,306.88c2.65-5.09,7.84-2.12,11.61-3.66,0,2.78,0,5.55,0,8.33C155.56,311.26,151.32,310.62,148.33,306.88Z"/><path class="cls-27" d="M238.18,198.39c-2.91,2-5.51,1.3-6.92-1.62-2-4.15,1.33-6.41,4-9.24,2.67,2.08.29,5.73,2.78,7.42Z"/></svg>