<svg id="Layer_1" data-name="Layer 1" xmlns="http://www.w3.org/2000/svg" viewBox="0 0 500 500"><defs><style>.cls-1{fill:#fefefe;}.cls-2{fill:#e5007a;}</style></defs><circle class="cls-1" cx="250" cy="250.74" r="241.82"/><path d="M252.54,108.08c43.62,3,76.43,23.14,95,63.17,29,62.35-8.24,135.27-75.51,149.64-8.88,1.89-17.93,2.33-26.94,2.87-17.15,1-32.54,12.74-36.14,32.65-1.11,6.12-2.6,12.16-3.83,18.26-1.86,9.23-9.29,14.66-17.8,12.93-8.74-1.78-13.46-9.69-11.46-19q8.06-37.51,16.06-75.06,8.7-40.6,17.47-81.21c1.83-8.48,9.61-13.57,17.78-11.82a14.75,14.75,0,0,1,11.29,17.81c-4.66,22.09-9.48,44.14-14.23,66.21-.68,3.14-1.28,6.29-2,9.42-.37,1.66,0,2.67,1.89,2.24,12-2.62,24.36-2.45,36.5-4C292.94,288,320,262.37,325.9,230.55c8-42.9-19.45-82.92-62.39-91.05-40.95-7.75-82.32,20.77-89.76,61.78a77.78,77.78,0,0,0,2.65,38.92c2.83,8.56-1.16,17.24-9.12,19.86-8.4,2.76-16.74-1.8-19.55-10.69-17.8-56.44,11.21-115.54,66.26-135A110.87,110.87,0,0,1,252.54,108.08Z"/><path class="cls-2" d="M235.9,373.06c0-10.38,7.75-18.13,18.09-18.09a18.06,18.06,0,1,1-18.09,18.09Z"/></svg>