<svg id="Layer_1" data-name="Layer 1" xmlns="http://www.w3.org/2000/svg" viewBox="0 0 100 100"><defs><style>.cls-1{fill:#fefefe;}.cls-2{fill:#4caf50;}.cls-3{fill:#212121;}</style></defs><circle class="cls-1" cx="50" cy="50" r="50"/><path class="cls-2" d="M68.32,21.76l18.12-3.27c-2.07,6.07-4.08,12-6.18,18.09-.94-1.15-1.8-2.12-2.55-3.16-.54-.74-.88-.74-1.6-.16C67,40.55,57.84,47.79,48.73,55.09c-.78.62-1.18.66-1.84-.14C45,52.67,42.9,50.49,41,48.2c-.66-.79-1.06-.79-1.87-.19q-12.46,9.26-25,18.44l-.92.61V57.34c0-.54.42-.74.77-1Q27.25,46.58,40.5,36.78c.72-.53,1.07-.34,1.55.22C44,39.22,46,41.38,47.88,43.63c.68.81,1.09.76,1.88.13C56.67,38.2,63.6,32.65,70.6,27.19c1.13-.89,1.05-1.44.21-2.36S69.27,22.94,68.32,21.76Z"/><path class="cls-3" d="M71.59,63.23c0-5.64,0-11.28,0-16.92a2.56,2.56,0,0,1,.87-1.86c2.19-2.46,4.33-2.58,7.35-1.07,2.7,1.36,3.81,2.63,3.73,5.8-.26,10.24-.13,20.5-.06,30.75,0,1.37-.4,1.61-1.64,1.57-2.85-.1-5.71-.09-8.55,0-1.28,0-1.74-.23-1.72-1.64C71.65,74.32,71.59,68.77,71.59,63.23Z"/><path class="cls-3" d="M63.94,51.27c0,9.94,0,19.54,0,29.15,0,.83-.22,1.08-1.06,1.07-3.24,0-6.49,0-9.73,0-.84,0-1.07-.24-1.07-1.07,0-6.33,0-12.65,0-19,0-.39,0-.77.34-1.06C56.22,57.42,60,54.43,63.94,51.27Z"/><path class="cls-3" d="M44.49,71c0,3,0,6,0,9,0,1.07-.16,1.54-1.41,1.49-3-.1-6.1-.07-9.14,0-1,0-1.35-.17-1.34-1.26,0-6,0-12.07,0-18.1a1.69,1.69,0,0,1,.76-1.6c2-1.42,4-2.87,5.92-4.37.65-.51.94-.35,1.54.16,2.9,2.52,4.27,5.51,3.68,9.42A34.55,34.55,0,0,0,44.49,71Z"/><path class="cls-3" d="M25,66.72c0,4.78,0,9.23,0,13.68,0,.83-.23,1.1-1.07,1.08-3.29,0-6.57,0-9.86,0-.68,0-1-.16-.93-.9.05-1.46,0-2.93,0-4.4a1.23,1.23,0,0,1,.5-1.13C17.4,72.34,21.09,69.62,25,66.72Z"/></svg>