<svg id="Layer_1" data-name="Layer 1" xmlns="http://www.w3.org/2000/svg" viewBox="0 0 100 100"><defs><style>.cls-1{fill:#fefefe;}.cls-2{fill:#f44437;}.cls-3{fill:#1d1e1b;}.cls-4{fill:#1d1e1c;}</style></defs><circle class="cls-1" cx="50" cy="50" r="50"/><path class="cls-2" d="M85.29,52.28c2.12,6.17,4.14,12.09,6.26,18.26l-18.3-3.27c1.07-1.35,2-2.53,2.93-3.66.5-.57.55-.89-.11-1.41Q64.6,53,53.18,43.77c-.75-.61-1.12-.47-1.68.19-2,2.28-4,4.49-5.94,6.76-.5.58-.83.78-1.57.23Q27.94,39.07,11.83,27.26c-.79-.58-.92-.93-.2-1.67a55.74,55.74,0,0,0,3.82-4.31c.75-1,1.25-.81,2.11-.18C25.5,27,33.48,32.85,41.44,38.72c2.21,1.63,2.2,1.63,4-.46,1.64-1.88,3.33-3.7,4.91-5.61.69-.85,1.12-.86,2-.17,9.55,7.72,19.14,15.39,28.7,23.1.74.6,1.14.67,1.71-.17C83.48,54.37,84.35,53.44,85.29,52.28Z"/><path class="cls-3" d="M13.44,35.11c3.77,2.78,7.3,5.39,10.85,8,.48.35.45.76.45,1.23q0,15.66,0,31.33c0,.8-.11,1.16-1.05,1.14-3.09-.06-6.19,0-9.29,0-.68,0-1-.11-1-.9C13.45,62.38,13.44,48.9,13.44,35.11Z"/><path class="cls-3" d="M32,48.81c3.76,2.69,7.29,5.22,10.84,7.72a1.26,1.26,0,0,1,.48,1.22c0,6,0,12,0,18,0,.77-.19,1.06-1,1-3.1,0-6.19,0-9.29,0-.76,0-1.06-.15-1.05-1C32,66.89,32,58,32,48.81Z"/><path class="cls-3" d="M50.62,49c3.78,2.84,7.32,5.5,10.87,8.15.46.34.43.77.43,1.24,0,5.76,0,11.51,0,17.27,0,.84-.18,1.13-1.08,1.11-3.09-.06-6.19,0-9.28,0-.7,0-1-.14-1-.92C50.63,67,50.62,58.17,50.62,49Z"/><path class="cls-4" d="M74.88,76.76c-1.59,0-3.18,0-4.77,0-.65,0-.92-.16-.9-.86.05-1.49.05-3,0-4.48,0-.67.11-.91.85-.77q4.75.89,9.52,1.68c.75.12,1,.44,1,1.19,0,3.23.06,3.23-3.14,3.23Z"/></svg>