<svg id="Layer_1" data-name="Layer 1" xmlns="http://www.w3.org/2000/svg" viewBox="0 0 500 500"><defs><style>.cls-1{fill:#fe0013;}.cls-2{fill:#fefdfd;}.cls-3{fill:#fe0114;}</style></defs><path class="cls-1" d="M220,.21h60c21.47,3.6,43.35,4,64.09,12.72C417.59,44,467.35,96.84,492.82,172.42c5.45,16.16,3.85,33.51,7,50.1v60c-4,20.58-4.3,41.64-12.73,61.59C456,417.6,403.13,467.33,327.57,492.82c-16.16,5.46-33.5,3.85-50.1,7h-60c-20.58-3.93-41.64-4.31-61.59-12.74C82,455.77,32.06,402.56,6.81,326.39c-5-15-3.3-31.09-6.61-46.42V217.53C4.12,197,4.5,175.89,12.94,155.94,44.22,82,97.43,32.08,173.6,6.83,188.56,1.87,204.69,3.53,220,.21Z"/><path class="cls-2" d="M225,440.35,93,108.14c33.12,6.09,64.5,11.8,95.86,17.63,47.8,8.9,95.57,18,143.42,26.68,7.28,1.32,13.17,3.9,18.44,9.13q25.68,25.48,51.91,50.44c3.57,3.41,4.73,5.87,1.15,10.23C344.51,294.41,285.35,366.68,225,440.35Z"/><path class="cls-1" d="M132.42,151.9q20.12,16.48,40.22,33c20.86,17.16,41.64,34.43,62.61,51.46,4.48,3.64,6.86,6.94,6,13.5-6,45.68-11.4,91.44-19.43,137.94Q175.64,270.88,129.46,154Z"/><path class="cls-1" d="M376.18,229.75c-17.21,21-32.66,39.91-48.22,58.75Q291,333.2,254,377.75c-2.47,3-4.36,8.85-9.21,6.73-5.43-2.37-.71-7.06-.27-10.73,4.32-35.9,9.24-71.74,12.66-107.73,1.18-12.48,5.27-17.34,18.08-19.11C308.08,242.37,340.7,235.92,376.18,229.75Z"/><path class="cls-1" d="M141.37,133.94l178.76,33.32c-23.58,19.93-45.31,38.22-66.92,56.64-3.12,2.66-5,1.11-7.43-.87q-52.67-43.31-105.39-86.52Z"/><path class="cls-3" d="M275.67,228.18q29.83-25.06,59.64-50.16c2.76-2.34,4.79-2.33,7.27.3,10.72,11.43,21.53,22.76,32.75,34.58l-98.7,17.61Z"/></svg>