<svg id="Layer_1" data-name="Layer 1" xmlns="http://www.w3.org/2000/svg" viewBox="0 0 500 500"><defs><style>.cls-1{fill:#327bf6;}.cls-2{fill:#fefefe;}</style></defs><path class="cls-1" d="M.18,249.68C-.55,111.6,111.64-.12,250.36.16,388.24.44,499.89,112.25,499.83,250.48s-112.19,249-251.24,249.36C111.56,500.24-1,386.91.18,249.68Z"/><path class="cls-2" d="M161.93,439.21q2-17.5,4-35,7.09-62.29,14.22-124.59c4.85-42.27,9.79-84.53,14.53-126.81.39-3.5,1.41-5,5-5.84,73.33-17.43,146.62-35,222.09-53.13L163.7,439.6Z"/><path class="cls-2" d="M159.32,439.27Q146.65,407.34,134,375.41c-24.53-62-48.94-124.09-73.74-186-2.59-6.47-1.43-8.11,5-9.49q49.68-10.62,99.16-22.12c6.09-1.41,7.43-.19,7.17,6q-4.8,114.29-9.08,228.58c-.58,15.54-.09,31.12-.09,46.68Z"/></svg>