<svg id="Layer_1" data-name="Layer 1" xmlns="http://www.w3.org/2000/svg" viewBox="0 0 500 500"><defs><style>.cls-1{fill:#262626;}.cls-2{fill:#fefefe;}</style></defs><path class="cls-1" d="M250.32,0C388.31,0,500.07,112.34,500,250.86,499.91,388.75,387.61,500.1,248.73,500,112,499.9-.14,387.09,0,249.83.14,112.2,112.6,0,250.32,0Z"/><path class="cls-2" d="M389.92,136q-10.67,11.1-21.32,22.18Q338.29,189.58,308,221c-32.29,33.45-80.33,33.76-112.8.48-26.51-27.17-52.75-54.61-79.1-81.94-1.1-1.15-2.09-2.4-3.09-3.55,1.14-1.87,2.74-1.23,4.06-1.24,9.94-.06,19.89.11,29.83-.13a11,11,0,0,1,9,3.82q28.83,30.21,57.9,60.18c23,23.84,52,23.86,75.18,0q29.05-30,57.91-60.18a11,11,0,0,1,8.95-3.81c11.16.22,22.33.08,33.5.08Z"/><path class="cls-2" d="M391.24,378.39c-13.81,0-25.89-.05-38,0-2.82,0-4.12-2-5.71-3.6Q317.82,344,288.1,313.19c-22-22.73-51.65-22.78-73.61-.18-7.69,7.91-15.3,15.88-22.94,23.82-12,12.5-24.15,24.91-36,37.55a12.06,12.06,0,0,1-9.93,4.12c-11-.24-21.92-.08-33-.08,0-2.91,2-3.87,3.26-5.19q39.25-40.83,78.61-81.58c32.37-33.58,80.62-33.75,113.17-.22q39.64,40.83,79,81.91C387.89,374.59,389,375.92,391.24,378.39Z"/></svg>