<svg id="Layer_1" data-name="Layer 1" xmlns="http://www.w3.org/2000/svg" viewBox="0 0 500 500"><defs><style>.cls-1{fill:#437dee;}.cls-2{fill:#fefefe;}</style></defs><path class="cls-1" d="M220,.21h60c8,2.17,16.28,2.2,24.46,2.78,38.5,2.7,70.41,21.07,100.22,43.33C442.8,74.81,470.09,112,488.35,156c8,19.15,8.08,39.41,10.18,59.45.26,2.4-.65,5,1.26,7.12v60c-2.3,7.16-2.31,14.62-2.8,22-2.49,37.08-20,67.91-41,97-28.77,39.76-66.68,68-111.85,86.86-19.16,8-39.45,8.09-59.5,10.2-2.41.26-5-.65-7.13,1.26h-60c-7.15-2.3-14.6-2.3-22-2.8-38.42-2.62-70.26-21-100-43.15-38.16-28.44-65.45-65.56-83.8-109.5-7.88-18.86-8-38.8-10.27-58.49-.24-2,.34-4.17-1.27-5.88V217.53c2.29-7.15,2.29-14.6,2.79-22,2.62-38.42,21-70.26,43.16-100C74.58,57.4,111.71,30.1,155.65,11.75c18.86-7.88,38.81-8,58.49-10.27C216.15,1.25,218.31,1.82,220,.21Z"/><path class="cls-2" d="M288.51,244.89c58.7-3,88.13,50.1,75.64,103.29-7.24,30.82-27.09,48.7-57.56,55.37-17.8,3.9-35.73,4-53-2-19.65-6.82-31.74-20.94-34.39-41.92-1.64-13,3.59-22,14-24.66s20-1.24,26.21,8.9c5.72,9.38,3.43,20.55-5.65,29.07l-3.52,3.3c24.66,22.18,65.6,12.28,76.53-18.56a97.42,97.42,0,0,0,1.13-62.59c-9.18-29.51-35.28-40.53-63.31-27.67-5.63,2.58-13.08,10.36-17.07,5.48-4.38-5.35,4.58-11.21,8.33-16.25,19.84-26.6,40.07-52.92,60-79.13-2.54-4.72-6.29-3.15-9.26-3.17-25.39-.14-50.78.34-76.15-.3-9.62-.24-12,3.15-11.85,12.17.48,28.29.14,56.59.27,84.89,0,11.17,1.46,22.25,13.4,27.25,12.52,5.24,22.55-.66,31.52-9.05,1.21-1.14,2.21-2.53,3.51-3.54,3.72-2.9,5.13-11.68,12.22-6.33,5.87,4.43,2.94,10.52.19,15.81-10.48,20.1-31.28,27.57-60.84,21.91-21.33-4.09-33.91-17.85-34.8-40.91-1-25.76-.4-51.59-.44-77.38,0-24.6,0-24.6-24-24.6-5.82,0-11.67-.31-17.47.05-6.88.43-9.56-2-9.53-9.25s2.7-9.54,9.59-9.29c10,.37,20-.37,29.94.22,8.44.5,12.4-2,11.57-11a131.54,131.54,0,0,1,0-19.95c.44-7.1-.94-13.08-7-17.57-3.13-2.32-5.26-5.55-4.1-9.72,1.43-5.14,6-3.63,9.38-3.69,39.46-.63,37.3,1.36,36.8,34.27-.41,27.56-.08,27.61,27.13,27.55,31.2-.06,62.41-.24,93.62-.26,4.45,0,8.92-.72,13.12,2.43,10.64,8,11.06,10.4,1.7,19.66-19.24,19-38.59,37.91-57.78,57C293.78,237.42,290,239.52,288.51,244.89Z"/></svg>