<svg id="Layer_1" data-name="Layer 1" xmlns="http://www.w3.org/2000/svg" viewBox="0 0 500 500"><defs><style>.cls-1{fill:#fff;}</style></defs><path d="M240.22,0h19.54c1.11.15,2.22.32,3.34.46C275.34,2,287.75,2.72,299.8,5.2c54.38,11.18,100.32,37.49,137.14,79.05s57.35,90.26,62.12,145.59c.31,3.62.63,7.25.94,10.87v18.56a27.75,27.75,0,0,0-.41,2.84,237,237,0,0,1-5,38.91c-10.41,49-32.94,91.56-68.84,126.41-56.06,54.41-123.47,78-201.34,71.06-30.43-2.72-59.29-11.42-86.56-25.17a249.53,249.53,0,0,1-136-193.66,242.34,242.34,0,0,1,4.23-84.13C19.27,138.17,48.76,90.82,94.85,54.17c39.49-31.41,84.66-49,135-53.23C233.29.64,236.76.31,240.22,0Zm103,309c-1.16,1.66-2.08,3-3,4.3a112.23,112.23,0,0,1-40.53,35.16c-2.23,1.16-3.86,1-5.58-.87-2.24-2.47-4.69-4.75-7.08-7.08-6.56-6.41-13.14-12.82-19.84-19.34L164,398.31a5.4,5.4,0,0,0,.62.64c.41.28.81.54,1.24.78,35.5,19.6,73.24,26.49,113.28,19.53,39.84-6.92,73.06-25.87,100-55.93,2.77-3.09,2.79-3.1.37-6.33q-16.72-22.25-33.44-44.48C345.23,311.43,344.36,310.38,343.25,309ZM191.1,343.41c-1.33-1-2.39-1.82-3.5-2.59a111.8,111.8,0,0,1-36-41c-1.2-2.29-1.11-3.82.8-5.73,8.35-8.33,16.51-16.86,24.83-25.22,1.4-1.42,1.62-2.26.31-4q-37.68-49.21-75.24-98.52c-.41-.54-.89-1-1.4-1.62-43.83,76-21.07,168.71,39.18,217ZM156.68,191.22l2.76-4a112.26,112.26,0,0,1,41.2-35.8c2.07-1.06,3.57-.94,5.15.79s3.57,3.56,5.38,5.32l20,19.53,105-75.3c-62.9-38.87-159.32-31.9-218,38.16Zm152.14-34.65c1.15.84,2.1,1.58,3.08,2.25a112.15,112.15,0,0,1,36.78,41.94c1.2,2.34,1,3.91-.88,5.79-7.95,8-15.72,16.27-23.66,24.32-1.5,1.53-1.54,2.47-.24,4.19q36.92,48.58,73.69,97.25c.51.67,1.09,1.3,1.67,2,39.15-65.1,28.34-160.54-39.3-216.08Z"/><path class="cls-1" d="M343.25,309c1.11,1.39,2,2.44,2.81,3.53Q362.79,334.75,379.5,357c2.42,3.23,2.4,3.24-.37,6.33-26.94,30.06-60.16,49-100,55.93-40,7-77.78.07-113.28-19.53-.43-.24-.83-.5-1.24-.78a5.4,5.4,0,0,1-.62-.64L267.2,321.16c6.7,6.52,13.28,12.93,19.84,19.34,2.39,2.33,4.84,4.61,7.08,7.08,1.72,1.89,3.35,2,5.58.87a112.23,112.23,0,0,0,40.53-35.16C341.17,312,342.09,310.65,343.25,309Z"/><path class="cls-1" d="M191.1,343.41l-51,38.27c-60.25-48.24-83-140.91-39.18-216.95.51.58,1,1.08,1.4,1.62q37.6,49.28,75.24,98.52c1.31,1.7,1.09,2.54-.31,4-8.32,8.36-16.48,16.89-24.83,25.22-1.91,1.91-2,3.44-.8,5.73a111.8,111.8,0,0,0,36,41C188.71,341.59,189.77,342.42,191.1,343.41Z"/><path class="cls-1" d="M156.68,191.22l-38.5-51.29c58.69-70.06,155.11-77,218-38.16l-105,75.3-20-19.53c-1.81-1.76-3.69-3.45-5.38-5.32s-3.08-1.85-5.15-.79a112.26,112.26,0,0,0-41.2,35.8Z"/><path class="cls-1" d="M308.82,156.57,360,118.22c67.64,55.54,78.45,151,39.3,216.08-.58-.69-1.16-1.32-1.67-2q-36.82-48.63-73.69-97.25c-1.3-1.72-1.26-2.66.24-4.19,7.94-8.05,15.71-16.28,23.66-24.32,1.86-1.88,2.08-3.45.88-5.79a112.15,112.15,0,0,0-36.78-41.94C310.92,158.15,310,157.41,308.82,156.57Z"/></svg>