<?xml version="1.0" encoding="utf-8"?>
<!-- Generator: Adobe Illustrator 19.2.0, SVG Export Plug-In . SVG Version: 6.00 Build 0)  -->
<svg version="1.1" id="Layer_1" xmlns="http://www.w3.org/2000/svg" xmlns:xlink="http://www.w3.org/1999/xlink" x="0px" y="0px"
	 viewBox="0 0 1920 1080" style="enable-background:new 0 0 1920 1080;" xml:space="preserve">
<style type="text/css">
	.st0{fill:#754C24;}
	.st1{fill:#603813;}
	.st2{fill:#845732;}
	.st3{opacity:0.1;}
	.st4{fill:#333333;}
	.st5{fill:#FFFFFF;}
	.st6{fill:#4D4D4D;}
	.st7{fill:#FBB03B;}
	.st8{fill:#1A1A1A;}
	.st9{fill:#E6E6E6;}
	.st10{fill:#C1272D;}
	.st11{fill:#CCCCCC;}
	.st12{fill:#F2F2F2;}
	.st13{fill:#F15A24;}
	.st14{fill:#999999;}
	.st15{fill:#6C828C;}
	.st16{fill:#BDCCD4;}
	.st17{fill:#A8BDC6;}
	.st18{fill:none;stroke:#7F99A5;stroke-width:3.8176;stroke-miterlimit:10;}
	.st19{fill:#E8D4BF;}
	.st20{fill:#F7931E;}
	.st21{fill:#E8D06D;}
	.st22{fill:#F7E277;}
	.st23{fill:none;stroke:#FFFFFF;stroke-width:2.6961;stroke-linecap:round;stroke-miterlimit:10;}
	.st24{fill:#EFBEA3;}
	.st25{fill:#FFD6B8;}
	.st26{opacity:0.34;fill:#F2F2F2;}
	.st27{fill:#666666;}
	.st28{opacity:0.74;fill:#FFFFFF;}
	.st29{fill:#F69B76;}
	.st30{fill:#FFC9A1;}
</style>
<g>
	<rect y="0.6" class="st0" width="1920" height="1081"/>
	<g>
		<rect y="149.4" class="st1" width="1920" height="11"/>
		<rect y="161.4" class="st2" width="1920" height="11"/>
	</g>
	<g>
		<rect y="337" class="st1" width="1920" height="11"/>
		<rect y="348.9" class="st2" width="1920" height="11"/>
	</g>
	<g>
		<rect y="524.5" class="st1" width="1920" height="11"/>
		<rect y="536.4" class="st2" width="1920" height="11"/>
	</g>
	<g>
		<rect y="712" class="st1" width="1920" height="11"/>
		<rect y="724" class="st2" width="1920" height="11"/>
	</g>
	<g>
		<rect y="899.5" class="st1" width="1920" height="11"/>
		<rect y="911.5" class="st2" width="1920" height="11"/>
	</g>
</g>
<path class="st3" d="M240.9,511.3l0-21.3h-0.1c-0.1-15-11.4-26.8-25.4-26.8c-14,0-25.3,11.8-25.4,27.8H190l0,0h0.1l0,0l0.1,376.6
	l15.9,36.7v0l9,21.9v0l8.7-19.7l1.2-2.4l15.9-37.1h0.2L240.9,511.3z"/>
<path class="st3" d="M1681.1,319h1.1l0.6-8.4l0,0l4.7-66.5c0.4-5.9-4.3-11-10.2-11h-54.5c-2.5-12-4.8-23.4-6.3-31.1
	c-1.6-7.8,0.6-16.1,5.8-22.1l8.9-10.2c2.5-2.9,3.6-5.9,3.3-8.9c-0.4-3.2-2.3-6.2-5.9-8.8c0,0-0.1-0.1-0.1-0.1l-6.1-3.8
	c-13.3-7.7-28.3-7.9-42.5-0.5l-7.4,4.3c-4.4,2.6-5.7,5.9-6.1,8.2c-0.5,3.4,0.6,6.8,3.1,9.8l8.7,10.1c5.2,6,7.4,14.2,5.8,22
	c-1.6,7.6-3.8,19.1-6.3,31.1h-54.9c-5.9,0-10.6,5.1-10.2,11l5.2,74l0,1h1.5c-4.1,0-7.4,3.4-7.4,7.5s3.3,7.5,7.4,7.5h33.9
	c4.1,0,7.4-3.4,7.4-7.5s-3.3-7.5-7.4-7.5h8.1c0.1,1,0.4,0.9,0.9,1.2c0.3,0.2,0.7,0.3,1.1,0.3c0.4,0,0.8-0.1,1.2-0.3
	c0.4-0.3,0.7-1.1,0.8-1.1h10.6l3.2,9.7c1.1,3.1,4,5.3,7.3,5.3h27.7c3.3,0,6.2-2.2,7.3-5.3l3.2-9.7h10.7c0.1,0,0.4,0.8,0.8,1.1
	c0.7,0.5,1.6,0.5,2.3,0.1c0.5-0.3,0.8-0.2,0.9-1.2h8c-4.1,0-7.4,3.4-7.4,7.5s3.3,7.5,7.4,7.5h33.9c4.1,0,7.4-3.4,7.4-7.5
	S1685.2,319,1681.1,319z M1588,202.7c1.8-9-0.7-18.5-6.7-25.5l-8.7-10.1c-1.8-2.1-2.6-4.4-2.2-6.5c0.3-2.1,1.8-4,4.2-5.4l7.3-4.3
	c12.8-6.7,26.4-6.6,38.5,0.4l6,3.7c2.6,1.9,4,3.9,4.2,6c0.2,1.9-0.6,3.9-2.3,5.9l-8.9,10.3c-6,7-8.5,16.4-6.7,25.5
	c2.2,10.8,4.3,21.3,6.2,30.3h-37C1583.7,224,1585.8,213.5,1588,202.7z"/>
<g>
	<path class="st3" d="M1801.6,943.3h-316.5c-7.6,0-13.7-6.1-13.7-13.7V420.1h330.2c15.7,0,28.5,12.8,28.5,28.5v466.1
		C1830.1,930.5,1817.3,943.3,1801.6,943.3z"/>
	<path class="st4" d="M1801.6,923.3h-316.5c-7.6,0-13.7-6.1-13.7-13.7V400.1h330.2c15.7,0,28.5,12.8,28.5,28.5v466.1
		C1830.1,910.5,1817.3,923.3,1801.6,923.3z"/>
	<path class="st5" d="M1793.6,909.7h-317.4V405.6h317.4c14.8,0,26.7,12,26.7,26.7V883C1820.3,897.8,1808.4,909.7,1793.6,909.7z"/>
	<path class="st6" d="M1802.2,894.2h-315.9c-7.9,0-14.3-6.4-14.3-14.3V385.4c0-7.9,6.4-14.3,14.3-14.3h315.9
		c15.7,0,28.5,12.8,28.5,28.5v466.1C1830.7,881.5,1818,894.2,1802.2,894.2z"/>
	<rect x="1472" y="570.5" class="st7" width="358.7" height="182.1"/>
	<rect x="1742.7" y="371.1" class="st4" width="32.7" height="523.2"/>
	<polygon class="st7" points="1519.4,898.8 1519.4,941.2 1540.9,928.5 1562.3,941.2 1562.3,898.8 	"/>
	<rect x="1472" y="868.2" class="st6" width="25.5" height="41.8"/>
</g>
<g>
	<path class="st8" d="M1682.2,308.6h-164.3l-5.2-74.5c-0.4-5.9,4.3-10.9,10.2-10.9h154.5c5.9,0,10.6,5,10.2,10.9L1682.2,308.6z"/>
	<path class="st8" d="M1553.3,323.6h-33.9c-4.1,0-7.4-3.3-7.4-7.4l0,0c0-4.1,3.3-7.4,7.4-7.4h33.9c4.1,0,7.4,3.3,7.4,7.4l0,0
		C1560.7,320.3,1557.3,323.6,1553.3,323.6z"/>
	<path class="st8" d="M1614.1,323.6h-27.7c-3.3,0-6.2-2.1-7.3-5.2l-3.2-9.6h48.7l-3.2,9.6C1620.3,321.6,1617.4,323.6,1614.1,323.6z"
		/>
	<path class="st8" d="M1681.1,323.6h-33.9c-4.1,0-7.4-3.3-7.4-7.4l0,0c0-4.1,3.3-7.4,7.4-7.4h33.9c4.1,0,7.4,3.3,7.4,7.4l0,0
		C1688.5,320.3,1685.2,323.6,1681.1,323.6z"/>
	<polygon class="st4" points="1682.2,308.8 1517.9,308.8 1517.4,300.5 1682.8,300.5 	"/>
	<path class="st9" d="M1563.3,310.4c-0.4,0-0.8-0.1-1.1-0.3c-1.4-0.9-1.4-0.9,1.4-15.7c1.4-7.6,3.5-18.4,6.3-32.1
		c5-25.2,11-54.8,14.2-70.2c1.6-7.8-0.6-16.1-5.8-22.1l-8.7-10.1c-2.6-3-3.7-6.4-3.1-9.8c0.4-2.3,1.7-5.6,6.1-8.2l7.4-4.3
		c14.1-7.4,29.2-7.3,42.5,0.5l6.1,3.8c0,0,0.1,0.1,0.1,0.1c3.5,2.6,5.5,5.6,5.9,8.8c0.3,3-0.8,6.1-3.3,9l-8.9,10.3
		c-5.2,6-7.4,14.3-5.8,22.1c3.2,15.4,9.2,45.1,14.2,70.2c2.7,13.7,4.8,24.5,6.3,32.1c2.8,14.8,2.8,14.8,1.4,15.7
		c-0.7,0.4-1.6,0.4-2.3-0.1c-0.7-0.5-0.9-1.3-0.8-2c-0.4-4.4-8.8-47.3-22.7-115.3c-1.8-9,0.7-18.6,6.7-25.6l8.9-10.3
		c1.8-2,2.5-4,2.3-5.9c-0.2-2.1-1.6-4.1-4.2-6l-6-3.7c-12-7-25.7-7.1-38.5-0.4l-7.3,4.3c-2.4,1.4-3.8,3.3-4.2,5.4
		c-0.3,2.2,0.4,4.5,2.2,6.5l8.7,10.1c6,7,8.5,16.5,6.7,25.6c-13.9,68-22.3,110.8-22.7,115.2c0.1,0.7-0.1,1.5-0.8,2
		C1564.1,310.3,1563.7,310.4,1563.3,310.4z"/>
</g>
<g>
	<path class="st3" d="M1363.2,847.9H618.4c-7.3,0-13.2-5.9-13.2-13.2V336.6c0-7.3,5.9-13.2,13.2-13.2h744.8
		c7.3,0,13.2,5.9,13.2,13.2v498.1C1376.4,842,1370.5,847.9,1363.2,847.9z"/>
	<path class="st10" d="M1363.2,824.8H618.4c-7.3,0-13.2-5.9-13.2-13.2V313.6c0-7.3,5.9-13.2,13.2-13.2h744.8
		c7.3,0,13.2,5.9,13.2,13.2v498.1C1376.4,819,1370.5,824.8,1363.2,824.8z"/>
	<rect x="632.8" y="726.4" class="st11" width="719.8" height="59.1"/>
	<path class="st5" d="M992.7,766.3H648.3V274.1h317.7c14.7,0,26.7,11.9,26.7,26.7V766.3z"/>
	<path class="st12" d="M971.4,274.1h-24.8c11.8,0,21.3,14.4,21.3,32.1v460.1h24.8V306.2C992.7,288.5,983.2,274.1,971.4,274.1z"/>
	<path class="st5" d="M1337.1,766.3H992.7V300.8c0-14.7,11.9-26.7,26.7-26.7h317.7V766.3z"/>
	<rect x="690.9" y="353.3" class="st13" width="129.6" height="84.2"/>
	<path class="st12" d="M992.7,785.6v-19.2h-19.2C984.1,766.3,992.7,774.9,992.7,785.6L992.7,785.6z"/>
	<path class="st5" d="M992.7,785.6v-19.2h19.2C1001.3,766.3,992.7,774.9,992.7,785.6L992.7,785.6z"/>
	<polygon class="st9" points="648.3,766.3 632.8,785.6 632.8,274.1 648.3,274.1 	"/>
	<polygon class="st9" points="1337.1,766.3 1352.6,785.6 1352.6,274.1 1337.1,274.1 	"/>
	<rect x="1033" y="387" class="st14" width="273.7" height="83.2"/>
	<rect x="1033" y="353.5" class="st13" width="273.7" height="17.2"/>
	<rect x="1033" y="495.9" class="st11" width="273.7" height="16.7"/>
	<rect x="1033" y="534.4" class="st11" width="273.7" height="16.7"/>
	<rect x="1033" y="647.2" class="st11" width="273.7" height="16.7"/>
	<rect x="1033" y="685.7" class="st11" width="273.7" height="16.7"/>
	<rect x="1033" y="573" class="st11" width="156.1" height="16.7"/>
	<rect x="1033" y="611.5" class="st11" width="156.1" height="16.7"/>
	<rect x="691.9" y="495.9" class="st11" width="252.4" height="16.7"/>
	<rect x="691.9" y="534.4" class="st11" width="252.4" height="16.7"/>
	<rect x="842.2" y="420.8" class="st11" width="102" height="16.7"/>
	<rect x="842.2" y="387" class="st11" width="102" height="16.7"/>
	<rect x="842.2" y="353.3" class="st11" width="102" height="16.7"/>
	<rect x="691.9" y="459.3" class="st11" width="252.4" height="16.7"/>
	<rect x="691.9" y="647.2" class="st11" width="119.9" height="16.7"/>
	<rect x="691.9" y="685.7" class="st11" width="119.9" height="16.7"/>
	<rect x="691.9" y="573" class="st11" width="252.4" height="16.7"/>
	<rect x="691.9" y="611.5" class="st11" width="252.4" height="16.7"/>
	<rect x="1209.4" y="573" class="st13" width="97.3" height="55.3"/>
	<rect x="831.1" y="647.2" class="st14" width="113.2" height="55.3"/>
</g>
<g>
	<rect x="318.6" y="421.8" class="st15" width="104.5" height="509.3"/>
	<rect x="310.9" y="442.9" class="st3" width="112.1" height="509.3"/>
	<rect x="310.9" y="421.8" class="st16" width="104.5" height="509.3"/>
	<rect x="382.8" y="421.8" class="st17" width="32.6" height="509.3"/>
	<line class="st18" x1="324.7" y1="450.2" x2="359.3" y2="450.2"/>
	<line class="st18" x1="324.7" y1="596.1" x2="359.3" y2="596.1"/>
	<line class="st18" x1="324.7" y1="523.2" x2="348.9" y2="523.2"/>
	<line class="st18" x1="324.7" y1="464.8" x2="338.6" y2="464.8"/>
	<line class="st18" x1="324.7" y1="479.4" x2="338.6" y2="479.4"/>
	<line class="st18" x1="324.7" y1="494" x2="338.6" y2="494"/>
	<line class="st18" x1="324.7" y1="508.6" x2="338.6" y2="508.6"/>
	<line class="st18" x1="324.7" y1="537.7" x2="338.6" y2="537.7"/>
	<line class="st18" x1="324.7" y1="552.3" x2="338.6" y2="552.3"/>
	<line class="st18" x1="324.7" y1="566.9" x2="338.6" y2="566.9"/>
	<line class="st18" x1="324.7" y1="581.5" x2="338.6" y2="581.5"/>
	<line class="st18" x1="324.7" y1="743.4" x2="359.3" y2="743.4"/>
	<line class="st18" x1="324.7" y1="670.5" x2="348.9" y2="670.5"/>
	<line class="st18" x1="324.7" y1="612.2" x2="338.6" y2="612.2"/>
	<line class="st18" x1="324.7" y1="626.8" x2="338.6" y2="626.8"/>
	<line class="st18" x1="324.7" y1="641.3" x2="338.6" y2="641.3"/>
	<line class="st18" x1="324.7" y1="655.9" x2="338.6" y2="655.9"/>
	<line class="st18" x1="324.7" y1="685.1" x2="338.6" y2="685.1"/>
	<line class="st18" x1="324.7" y1="699.7" x2="338.6" y2="699.7"/>
	<line class="st18" x1="324.7" y1="714.3" x2="338.6" y2="714.3"/>
	<line class="st18" x1="324.7" y1="728.8" x2="338.6" y2="728.8"/>
	<line class="st18" x1="324.7" y1="890.8" x2="359.3" y2="890.8"/>
	<line class="st18" x1="324.7" y1="817.9" x2="348.9" y2="817.9"/>
	<line class="st18" x1="324.7" y1="759.5" x2="338.6" y2="759.5"/>
	<line class="st18" x1="324.7" y1="774.1" x2="338.6" y2="774.1"/>
	<line class="st18" x1="324.7" y1="788.7" x2="338.6" y2="788.7"/>
	<line class="st18" x1="324.7" y1="803.3" x2="338.6" y2="803.3"/>
	<line class="st18" x1="324.7" y1="832.5" x2="338.6" y2="832.5"/>
	<line class="st18" x1="324.7" y1="847" x2="338.6" y2="847"/>
	<line class="st18" x1="324.7" y1="861.6" x2="338.6" y2="861.6"/>
	<line class="st18" x1="324.7" y1="876.2" x2="338.6" y2="876.2"/>
</g>
<g>
	
		<rect x="190.1" y="462.6" transform="matrix(-1 1.121602e-04 -1.121602e-04 -1 431.1283 1301.9554)" class="st7" width="50.8" height="376.9"/>
	<path class="st10" d="M215.5,435.2c-14,0-25.4,11.9-25.4,27.4l50.7,0C240.8,447.1,229.5,435.2,215.5,435.2z"/>
	
		<rect x="190.1" y="462.6" transform="matrix(-1 1.121602e-04 -1.121602e-04 -1 431.0685 946.2746)" class="st6" width="50.8" height="21.2"/>
	<polygon class="st19" points="190.1,839.4 240.8,839.4 215.5,898.2 	"/>
	<polygon class="st4" points="206,876.3 215.5,898.2 224.9,876.3 	"/>
	
		<rect x="207" y="483.7" transform="matrix(-1 1.121602e-04 -1.121602e-04 -1 430.9491 1323.127)" class="st20" width="16.9" height="355.7"/>
	<polygon class="st7" points="240.8,839.4 232.3,848.9 223.9,839.4 	"/>
	<polygon class="st20" points="223.9,839.4 215.5,848.9 207,839.4 	"/>
	<polygon class="st7" points="207,839.4 198.6,848.9 190.1,839.4 	"/>
</g>
<g>
	<rect x="185.4" y="152.5" class="st3" width="239.3" height="239.3"/>
	<rect x="185.4" y="132.4" class="st21" width="239.3" height="239.3"/>
	<rect x="158.5" y="102.9" class="st22" width="239.3" height="239.3"/>
	<path class="st23" d="M243.3,150.3v-35.2c0-6.1,5-11.1,11.1-11.1h0c6.1,0,11.1,5,11.1,11.1v40.7c0,9.5-7.7,17.1-17.1,17.1h0
		c-9.5,0-17.1-7.7-17.1-17.1V91.3c0-9.5,7.7-17.1,17.1-17.1h0c9.5,0,17.1,7.7,17.1,17.1v6.2"/>
	<rect x="189.9" y="275.8" class="st21" width="173.6" height="5.2"/>
	<rect x="189.9" y="250.2" class="st21" width="173.6" height="5.2"/>
	<rect x="189.9" y="224.6" class="st21" width="173.6" height="5.2"/>
	<rect x="189.9" y="199" class="st21" width="173.6" height="5.2"/>
</g>
<g>
	<path class="st3" d="M2052.3,1060.5l-33.3-15.3l0,0l-58.4-26.9l0,0l-49.9-23l0,0l-58.4-26.9l0,0l-49.9-23l0,0l-58.4-26.9l0,0
		l-49.9-23l0,0l-58.4-26.9l0,0l-44.6-20.5l-11.5,25l-75.6-34.8l-16.8-11.2l-38.4-30c0,0-16.7-25.4-29.1-52.9
		c-8.1-17.9-24.5-66.5-58-73.3c-14.5-2.9-35-2.1-54.6,0.1c-10.1,0.3-20.4,1.5-30.2,4.2c-8.6,1.4-15.8,2.8-20.5,3.8l-12.5-36
		c0,0,0,0,0,0l-4.2-12.1c73.9-32.6,111.8-117.4,84.7-195c-13.8-39.6-42.1-71.4-79.8-89.6c-37.7-18.2-80.2-20.7-119.8-6.9
		c-39.6,13.8-71.4,42.1-89.6,79.8c-18.2,37.7-20.7,80.3-6.9,119.8c22.5,64.6,83.3,105.3,148.2,105.3c9.1,0,18.2-0.9,27.3-2.5
		l4.6,13.3c0,0,0,0,0,0l18.9,54.2c-0.1,0-0.1,0.1-0.2,0.2l-1.8,0.6c-3.4,1.2-5.8,4-6.6,7.3c-23.4,22.2-35.4,35-39.4,48.7
		c-8.4,28.3,24.1,26.7,24.1,26.7l0,0c-8.1,10.1-6.5,24.9,3.7,33l0.6,0.5c10.2,8.1,25,6.3,33-4l0.6-0.7c-1.6,13.5,6.4,26.4,19.3,30.8
		l3.6,1.2c2.9,1,5.9,1.4,8.8,1.4l3.9,11.1c-3.8,2.6-5.5,7.4-3.9,11.9l1.4,3.9c1.6,4.5,5.9,7.2,10.5,6.9l0.5,1.3l17-5.9
		c1.4,1.8,2.9,3.6,4.6,5.4l2,3l0.6-0.4c9.3,9.2,23.4,18.7,44.4,24.3c51.4,13.9,79.5,29.6,79.5,29.6l0.4-0.5l92.9,42.8l-10.9,23.6
		l81.7,37.6l21.3,9.8l0,0l158.2,72.8l0,0l46.5,21.4l94.9,43.7l25.3,11.7l0,0l33.3,15.3l10.9-23.6l0,0l53.1-115.3h0L2052.3,1060.5z"
		/>
	<path class="st24" d="M1372.3,647c0,0-85.3-27-126.8,12.1c-41.5,39.1-60.9,55.7-66.3,73.9c-8.4,28.3,24.1,26.7,24.1,26.7l0,0
		c-8.1,10.1-6.5,24.9,3.7,33l0.6,0.5c10.2,8.1,25,6.3,33-4l0.6-0.7l0,0c-1.6,13.5,6.4,26.4,19.3,30.8l3.6,1.2
		c12.1,4.1,25.4-1.2,31.3-12.5l0,0l0,0c-1.2,13.2,6.7,25.6,19.3,29.9l0,0c11.6,4,24.5-0.1,31.7-10l4-5.5l78-71.8L1372.3,647z"/>
	<path class="st25" d="M1487.2,794.1l-38.4-30c0,0-16.7-25.4-29.1-52.9c-8.1-17.9-24.5-66.5-58-73.3c-36.3-7.4-111.1,9.3-111.1,9.3
		l-12,16c0,0,101.9,41.8,97.2,94.8c-2.4,26.8-22.6,19.4-22.6,19.4l-20.9,55.5c0,0,10.1,36.8,61.5,50.7s79.5,29.6,79.5,29.6
		l76.1-104.3L1487.2,794.1z"/>
	<g>
		
			<ellipse transform="matrix(0.9444 -0.3288 0.3288 0.9444 -84.0041 412.0476)" class="st26" cx="1176.3" cy="454.4" rx="146.1" ry="146.1"/>
		
			<rect x="1219" y="582.2" transform="matrix(0.9444 -0.3288 0.3288 0.9444 -144.6402 443.0582)" class="st27" width="37.5" height="133.9"/>
		
			<rect x="1253.5" y="669.9" transform="matrix(0.9444 -0.3288 0.3288 0.9444 -178.9244 464.2184)" class="st27" width="59.2" height="182.6"/>
		<path class="st4" d="M1284.3,682.7l-50.9,17.7c-5.4,1.9-11.2-1-13.1-6.3l-1.4-3.9c-1.9-5.4,1-11.2,6.3-13.1l50.9-17.7
			c5.4-1.9,11.2,1,13.1,6.3l1.4,3.9C1292.5,675,1289.7,680.8,1284.3,682.7z"/>
		<path class="st4" d="M1338.2,837.5l-50.9,17.7c-5.4,1.9-11.2-1-13.1-6.3l-1.4-3.9c-1.9-5.4,1-11.2,6.3-13.1l50.9-17.7
			c5.4-1.9,11.2,1,13.1,6.3l1.4,3.9C1346.4,829.8,1343.6,835.7,1338.2,837.5z"/>
		<path class="st4" d="M1237.6,591.9l-35.5,12.2l6.3,18c4.1-0.5,14.4-3.7,18.4-5.1c4-1.4,13.2-4.8,17-7.1L1237.6,591.9z"/>
		<path class="st27" d="M1176.5,611.2c-64.9,0-125.7-40.6-148.2-105.3c-13.8-39.5-11.3-82.1,6.9-119.8
			c18.2-37.7,50.1-66.1,89.6-79.8c39.6-13.8,82.1-11.3,119.8,6.9c37.7,18.2,66.1,50.1,79.8,89.6c28.4,81.6-14.9,171.2-96.5,199.6
			C1210.9,608.4,1193.5,611.2,1176.5,611.2z M1176.4,330.1c-13.8,0-27.6,2.3-41,7c-31.3,10.9-56.6,33.4-71,63.3
			c-14.5,29.9-16.4,63.6-5.5,94.9c22.5,64.7,93.5,99,158.2,76.5c64.7-22.5,99-93.5,76.5-158.2c-10.9-31.3-33.4-56.6-63.3-71
			C1213.3,334.3,1194.9,330.1,1176.4,330.1z"/>
		<path class="st28" d="M1122.2,370c63.7-22.2,133.4,11.5,155.6,75.2c8.5,24.5,10.4,52.8,3.9,76c21.9-34.9,23.8-72.2,11-109.1
			c-22.2-63.7-91.8-97.4-155.6-75.2c-39.2,13.7-67.9,45.8-78,80.1C1073.3,394.8,1095.3,379.4,1122.2,370z"/>
	</g>
	<path class="st25" d="M1308.7,859.6l-71-108.7c-8.4-14.6-3.4-33.3,11.2-41.7l0,0c14.6-8.4,33.3-3.4,41.7,11.2l71,108.7
		L1308.7,859.6z"/>
	
		<rect x="1663.9" y="662.3" transform="matrix(0.4183 -0.9083 0.9083 0.4183 116.3899 2137.9346)" class="st25" width="126.9" height="631.6"/>
	<g>
		
			<rect x="1693.7" y="749.4" transform="matrix(0.4183 -0.9083 0.9083 0.4183 126.3931 2203.9714)" class="st29" width="180.5" height="507.7"/>
		
			<rect x="1536.9" y="899" transform="matrix(0.4183 -0.9083 0.9083 0.4183 100.7752 2019.5712)" class="st30" width="180.5" height="64.3"/>
		
			<rect x="1645.2" y="948.8" transform="matrix(0.4183 -0.9083 0.9083 0.4183 118.4704 2146.9434)" class="st30" width="180.5" height="64.3"/>
		
			<rect x="1753.5" y="998.7" transform="matrix(0.4183 -0.9083 0.9083 0.4183 136.1656 2274.3157)" class="st30" width="180.5" height="64.3"/>
		
			<rect x="1861.8" y="1048.6" transform="matrix(0.4183 -0.9083 0.9083 0.4183 153.8608 2401.6877)" class="st30" width="180.5" height="64.3"/>
	</g>
</g>
<g>
	<path class="st3" d="M777.5,713.8c-8.6-10.1-23.8-11.4-33.9-2.8l-39.4,43.6l-22.9,16.7l35.1-93.7l50.8-138.7
		c4.2-11.4-1.7-24-13.1-28.2h0c-11.4-4.2-24,1.7-28.2,13.1l-50.7,138.5c-2.4-0.7-4.8-1.5-7.3-2.2l12.6-43.8l28.3-60.1
		c4.2-11.4-1.7-24-13.1-28.2h0c-11.4-4.2-24,1.7-28.2,13.1l-27.6,58.3l-15.1,52.2c-2.7-0.2-5.4-0.4-8.1-0.4l10.9-43.4l29.3-53.3
		c4.2-11.4-1.7-24-13.1-28.2l0,0c-11.4-4.2-24,1.7-28.2,13.1l-30.1,55.4l-15.6,62.7c-1.5,0.4-3,0.8-4.4,1.2l4.2-36.1l19.3-57.4
		c2.4-11.9-3.5-23.1-13.2-25.1c-9.7-2-19.5,6.1-21.9,18l-19.8,59.6l-6.2,54.4c0,0.1-0.8,6.5-9.3,57.5c-8.6,51.2,20.6,81.1,20.6,81.1
		l-9.1,32l-41.4,100.8l-22.2-9.1l-59.1,143.8h0l-14.5,35.3l-27.3,66.5l0,0l-22.6,54.9l0,0l-19.3,46.9l0,0l-22.6,54.9l0,0l-12.9,31.3
		l22.2,9.1l0,0l108.4,44.6l0,0l23.5,9.7L600.8,1046l2.7-6.6l0,0l17.2-42l-23.5-9.7L640.7,882l-0.7-0.3l11-29.3l0.1,0.2l83.3-61.1
		l40.4-43.8C784.9,739.1,786.1,723.9,777.5,713.8z"/>
	<path class="st25" d="M587,815.9l31.1,36.7l83.3-61l40.4-43.8c10.1-8.6,11.4-23.8,2.8-33.9l0,0c-8.6-10.1-23.8-11.4-33.9-2.8
		l-39.4,43.6L587,815.9z"/>
	<path class="st25" d="M642.1,662.4l41.3,15.1l50.8-138.7c4.2-11.4-1.7-24-13.1-28.2h0c-11.4-4.2-24,1.7-28.2,13.1L642.1,662.4z"/>
	<path class="st25" d="M583.6,679.7l41.3,15.1l22.6-78.6l28.3-60.1c4.2-11.4-1.7-24-13.1-28.2l0,0c-11.4-4.2-24,1.7-28.2,13.1
		l-27.6,58.3L583.6,679.7z"/>
	<path class="st25" d="M531.8,677.9l41.3,15.1l21.5-85.4l29.3-53.3c4.2-11.4-1.7-24-13.1-28.2l0,0c-11.4-4.2-24,1.7-28.2,13.1
		l-30.1,55.4L531.8,677.9z"/>
	<path class="st25" d="M491.5,702.6l35.1,7.1l10.1-87.4l19.3-57.4c2.4-11.9-3.5-23.1-13.2-25.1l0,0c-9.7-2-19.5,6.1-21.9,18
		l-19.8,59.6L491.5,702.6z"/>
	<path class="st25" d="M683.3,677.6l-76.7,205.1l-110.7-35.7l10.4-36.6c0,0-29.2-29.9-20.6-81.1c8.6-51.2,9.3-57.5,9.3-57.5
		s53.9-25.3,98.8-20.2C638.8,656.8,683.3,677.6,683.3,677.6z"/>
	
		<rect x="384" y="837.8" transform="matrix(0.9249 0.3802 -0.3802 0.9249 462.6419 -83.4639)" class="st25" width="117.2" height="583.3"/>
	<g>
		
			<rect x="338.2" y="948.2" transform="matrix(0.9249 0.3802 -0.3802 0.9249 481.2679 -71.4541)" class="st29" width="166.7" height="468.9"/>
		
			<rect x="398.8" y="1005.5" transform="matrix(0.9249 0.3802 -0.3802 0.9249 429.7652 -105.5662)" class="st30" width="166.7" height="59.4"/>
		
			<rect x="356.9" y="1107.3" transform="matrix(0.9249 0.3802 -0.3802 0.9249 465.34 -82.0037)" class="st30" width="166.7" height="59.4"/>
		
			<rect x="315.1" y="1209.2" transform="matrix(0.9249 0.3802 -0.3802 0.9249 500.9148 -58.4412)" class="st30" width="166.7" height="59.4"/>
		
			<rect x="273.2" y="1311" transform="matrix(0.9249 0.3802 -0.3802 0.9249 536.4896 -34.8787)" class="st30" width="166.7" height="59.4"/>
	</g>
</g>
</svg>
